<svg height="512pt" viewBox="-46 0 512 512" width="512pt" xmlns="http://www.w3.org/2000/svg"><path d="m50 223v259c0 11.050781 8.949219 20 20 20h280c11.050781 0 20-8.949219 20-20 0-56.761719 0-201.3125 0-259zm0 0" fill="#b9bfc9"/><path d="m370 250h-20c-11.050781 0-20 8.949219-20 20v40c0 11.039062-8.960938 20-20 20-11.050781 0-20-8.949219-20-20v-30c0-8.28125-3.359375-15.78125-8.789062-21.210938-5.429688-5.429687-12.929688-8.789062-21.210938-8.789062-16.570312 0-30 13.429688-30 30v70c0 11.039062-8.960938 20-20 20-11.050781 0-20-8.949219-20-20v-70c0-8.28125-3.359375-15.78125-8.789062-21.210938-5.429688-5.429687-12.929688-8.789062-21.210938-8.789062-16.570312 0-30 13.429688-30 30v10c0 11.039062-8.960938 20-20 20-11.050781 0-20-8.949219-20-20v-20c0-11.050781-8.949219-20-20-20h-20c0-9.679688 0-70.257812 0-80h320zm0 0" fill="#ff5284"/><path d="m270 10c11.050781 0 20 8.949219 20 20 0 11.039062-8.960938 20-20 20h-120c-11.050781 0-20-8.949219-20-20 0-11.039062 8.960938-20 20-20zm0 0" fill="#425072"/><path d="m110 220c5.519531 0 10-4.480469 10-10s-4.480469-10-10-10-10 4.480469-10 10 4.480469 10 10 10zm0 0"/><path d="m420 150c0-68.867188-53.832031-125.390625-121.625-129.722656-4.050781-11.785156-15.234375-20.277344-28.375-20.277344h-120c-13.417969 0-24.4375 8.71875-28.386719 20.277344-67.789062 4.339844-121.613281 60.859375-121.613281 129.722656v40c0 16.542969 13.457031 30 30 30h10v262c0 16.542969 13.457031 30 30 30h280c16.542969 0 30-13.457031 30-30v-262h10c16.542969 0 30-13.457031 30-30zm-270-130h120c5.515625 0 10 4.484375 10 10 0 5.519531-4.480469 10-10 10h-120c-5.515625 0-10-4.484375-10-10 0-5.519531 4.480469-10 10-10zm210 220h-10c-16.542969 0-30 13.457031-30 30v40c0 5.519531-4.480469 10-10 10-5.515625 0-10-4.484375-10-10v-30c0-22.097656-17.898438-40-40-40-22.054688 0-40 17.945312-40 40v70c0 5.519531-4.480469 10-10 10-5.515625 0-10-4.484375-10-10v-70c0-22.097656-17.898438-40-40-40-22.054688 0-40 17.945312-40 40v10c0 5.519531-4.480469 10-10 10-5.515625 0-10-4.484375-10-10v-20c0-16.542969-13.457031-30-30-30h-10v-60h300zm-10 252h-280c-5.515625 0-10-4.484375-10-10v-222h10c5.515625 0 10 4.484375 10 10v20c0 16.542969 13.457031 30 30 30 16.574219 0 30-13.425781 30-30v-10c0-11.027344 8.972656-20 20-20 11.046875 0 20 8.953125 20 20v70c0 16.542969 13.457031 30 30 30 16.574219 0 30-13.425781 30-30v-70c0-11.027344 8.972656-20 20-20 11.046875 0 20 8.953125 20 20v30c0 16.542969 13.457031 30 30 30 16.574219 0 30-13.425781 30-30v-40c0-5.515625 4.484375-10 10-10h10v222c0 5.515625-4.484375 10-10 10zm50-302c0 5.515625-4.484375 10-10 10h-10v-30c0-5.523438-4.476562-10-10-10h-320c-5.523438 0-10 4.476562-10 10v30h-10c-5.515625 0-10-4.484375-10-10v-40c0-57.902344 44.972656-105.5 101.824219-109.695312 4.210937 11.480468 15.25 19.695312 28.175781 19.695312h120c13.207031 0 24.082031-8.453125 28.1875-19.695312 56.84375 4.203124 101.8125 51.792968 101.8125 109.695312zm0 0"/><path d="m150 220h160c5.523438 0 10-4.476562 10-10s-4.476562-10-10-10h-160c-5.523438 0-10 4.476562-10 10s4.476562 10 10 10zm0 0"/></svg>