<svg height="511pt" viewBox="-95 1 511 511.99999" width="511pt" xmlns="http://www.w3.org/2000/svg"><path d="m310.507812 242.007812v40c0 22.089844-17.910156 40.003907-40 40.003907h-60c-11.050781 0-20 8.949219-20 20v7.871093c0 29.75 8.117188 58.371094 17.5 86.601563 12.191407 36.730469-20.988281 74.214844-60.972656 63.769531-29.023437-7.570312-43.953125-39.75-32.890625-66.859375 9.007813-22.050781 16.359375-59.59375 16.359375-83.414062v-7.96875c0-11.050781-8.949218-20-20-20h-60.003906c-22.089844 0-40-17.914063-40-40.003907v-40zm0 0" fill="#a0e4f8"/><path d="m10.5 202.007812h300.007812v40h-300.007812zm0 0" fill="#ffe35c"/><path d="m10.5 62h300.007812v140.007812h-300.007812zm0 0" fill="#fff"/><path d="m310.507812 10v72.003906h-40c-11.050781 0-20 8.949219-20 20v40c0 11.039063-8.960937 20-20 20-11.050781 0-20-8.949218-20-20v-30c0-16.5625-13.441406-30-30.003906-30-16.570312 0-30 13.429688-30 30v10c0 11.039063-8.960937 20-20 20-11.050781 0-20-8.949218-20-20v-10c0-16.5625-13.441406-30-30-30-16.570312 0-30.003906 13.429688-30.003906 30v10c0 11.039063-8.957031 20-20 20-11.050781 0-20-8.949218-20-20v-112.003906zm0 0" fill="#ff5284"/><path d="m110.503906 272.007812c-5.519531 0-10 4.480469-10 10 0 5.519532 4.480469 10 10 10 5.519532 0 10-4.480468 10-10 0-5.519531-4.480468-10-10-10zm0 0"/><path d="m160.503906 432.011719c-11.027344 0-20 8.972656-20 20.003906 0 11.027344 8.972656 20 20 20 11.03125 0 20-8.972656 20-20 0-11.03125-8.96875-20.003906-20-20.003906zm0 0"/><path d="m190.507812 272.007812h-40.003906c-5.523437 0-10 4.476563-10 10 0 5.523438 4.476563 10 10 10h40.003906c5.519532 0 10-4.476562 10-10 0-5.523437-4.480468-10-10-10zm0 0"/><path d="m.5 10v272.007812c0 27.570313 22.429688 50.003907 50 50.003907h60.003906c5.515625 0 10 4.484375 10 10v7.96875c0 22.445312-7.152344 58.914062-15.621094 79.636719-15.453124 37.878906 11.230469 82.382812 55.578126 82.382812 41.03125 0 69.8125-40.183594 57.035156-78.667969-10.199219-30.695312-16.988282-56.632812-16.988282-83.449219v-7.871093c0-5.515625 4.484376-10 10-10h60c27.570313 0 50.003907-22.433594 50.003907-50.003907v-272.007812c0-5.523438-4.480469-10-10.003907-10h-300.007812c-5.523438 0-10 4.476562-10 10zm130.003906 142.003906c16.578125 0 30-13.425781 30-30v-10c0-11.027344 8.972656-20 20-20 11.046875 0 20.003906 8.953125 20.003906 20v30c0 16.542969 13.457032 30 30 30 16.578126 0 30-13.425781 30-30v-40c0-5.515625 4.488282-10 10-10h30v100.003906h-280.007812v-41.722656c3.128906 1.109375 6.496094 1.71875 10 1.71875 16.578125 0 30-13.425781 30-30v-10c0-11.027344 8.972656-20 20.003906-20 11.042969 0 20 8.953125 20 20v10c0 16.542969 13.457032 30 30 30zm-110.003906 60.003906h280.007812v20h-280.007812zm250.007812 100h-60c-16.542968 0-30.003906 13.460938-30.003906 30.003907v7.871093c0 29.503907 7.203125 57.21875 18.011719 89.75 8.847656 26.652344-11.832031 52.984376-39.011719 52.359376-29.640625-.679688-46.089844-30.335938-36.101562-54.816407 9.429687-23.078125 17.101562-62.195312 17.101562-87.195312v-7.96875c0-16.542969-13.457031-30.003907-30-30.003907h-60.003906c-16.539062 0-30-13.457031-30-30v-30h280.007812v30c0 16.542969-13.457031 30-30 30zm-250.007812-292.007812h280.007812v52.003906h-30c-16.542968 0-30 13.457032-30 30v40c0 5.523438-4.476562 10-10 10-5.515624 0-10-4.484375-10-10v-30c0-22.097656-17.902343-40-40.003906-40-22.054687 0-40 17.941406-40 40v10c0 5.519532-4.476562 10-10 10-5.515625 0-10-4.484375-10-10v-10c0-22.097656-17.898437-40-40-40-22.058594 0-40.003906 17.941406-40.003906 40v10c0 5.519532-4.476562 10-10 10-5.511719 0-10-4.484375-10-10zm0 0"/></svg>