<svg height="512pt" viewBox="0 0 512 512.00069" width="512pt" xmlns="http://www.w3.org/2000/svg"><path d="m426.667969 170.667969c0-9.425781-7.640625-17.066407-17.066407-17.066407h-42.667968v17.066407c0 9.425781-7.640625 17.066406-17.066406 17.066406h-102.398438c-9.425781 0-17.070312-7.640625-17.070312-17.066406v-17.066407h-153.597657c-4.714843 0-8.535156 3.820313-8.535156 8.53125v68.265626c0 4.714843 3.820313 8.535156 8.535156 8.535156h332.800781c9.425782 0 17.066407-7.640625 17.066407-17.066406zm0 0" fill="#ff9478"/><path d="m452.265625 179.199219h-25.597656v34.132812h25.597656c4.714844 0 8.535156-3.820312 8.535156-8.53125v-17.066406c0-4.714844-3.820312-8.535156-8.535156-8.535156zm0 0" fill="#ffc477"/><path d="m42.667969 170.667969c0-4.714844-3.820313-8.535157-8.535157-8.535157h-17.066406c-4.710937 0-8.53125 3.820313-8.53125 8.535157v51.199219c0 4.710937 3.820313 8.53125 8.53125 8.53125h17.066406c4.714844 0 8.535157-3.820313 8.535157-8.53125zm0 0" fill="#ff7956"/><path d="m42.667969 179.199219h25.601562v34.132812h-25.601562zm0 0" fill="#898890"/><path d="m56.5 388.394531c-2.285156 9.144531 3.273438 18.410157 12.417969 20.695313 1.355469.339844 2.746093.511718 4.144531.507812h50.140625c7.835937.003906 14.664063-5.324218 16.5625-12.925781l39.433594-157.738281h-85.332031zm0 0" fill="#898890"/><path d="m307.199219 128c2.863281.007812 5.71875-.25 8.535156-.765625 24.632813-4.128906 42.675781-25.457031 42.667969-50.433594v-68.265625h-119.46875v68.265625c-.011719 24.976563 18.03125 46.304688 42.667968 50.433594 2.8125.515625 5.671876.773437 8.53125.765625zm0 0" fill="#ffc477"/><path d="m315.734375 153.601562v-26.371093c-2.816406.519531-5.671875.777343-8.535156.769531h-17.066407c-2.863281.007812-5.71875-.25-8.53125-.769531v26.371093zm0 0" fill="#898890"/><path d="m298.667969 187.734375h34.132812v-34.132813h-34.132812zm0 0" fill="#898890"/><path d="m349.867188 187.734375c9.425781 0 17.066406-7.640625 17.066406-17.066406v-17.066407h-34.132813v34.132813zm0 0" fill="#c6c5ca"/><path d="m247.46875 187.734375h17.066406v-34.132813h-34.136718v17.066407c0 9.425781 7.644531 17.066406 17.070312 17.066406zm0 0" fill="#898890"/><path d="m298.667969 187.734375v-34.132813h-34.132813v34.132813zm0 0" fill="#c6c5ca"/><g fill="#3e3d42"><path d="m469.332031 187.734375c0-9.425781-7.640625-17.066406-17.066406-17.066406h-17.066406c0-14.140625-11.460938-25.601563-25.597657-25.601563h-85.335937v-11.09375c25.363281-7.433594 42.757813-30.742187 42.667969-57.171875v-68.265625c0-4.714844-3.820313-8.535156-8.535156-8.535156h-119.464844c-4.714844 0-8.535156 3.820312-8.535156 8.535156v68.265625c-.09375 26.429688 17.304687 49.742188 42.667968 57.171875v11.09375h-196.265625c-9.425781 0-17.066406 7.640625-17.066406 17.066406v8.535157h-8.535156c0-9.425781-7.640625-17.066407-17.066407-17.066407h-17.066406c-9.425781 0-17.066406 7.640626-17.066406 17.066407v51.199219c0 9.425781 7.640625 17.066406 17.066406 17.066406h17.066406c9.425782 0 17.066407-7.640625 17.066407-17.066406h8.535156v8.53125c0 9.425781 7.640625 17.066406 17.066406 17.066406h6.144531l-34.722656 138.855468c-3.433594 13.714844 4.90625 27.617188 18.621094 31.046876 2.035156.507812 4.121094.765624 6.21875.765624h12.269531v8.535157c0 14.136719 11.464844 25.601562 25.601563 25.601562h307.199218c4.714844 0 8.535157 3.820313 8.535157 8.53125v25.601563c0 4.710937-3.820313 8.53125-8.535157 8.53125h-230.398437c-4.714844 0-8.535156 3.820312-8.535156 8.535156 0 4.710938 3.820312 8.53125 8.535156 8.53125h230.398437c14.140626 0 25.601563-11.460938 25.601563-25.601562v-25.597657c0-14.140625-11.460937-25.601562-25.601563-25.601562h-307.199218c-4.714844 0-8.535156-3.820313-8.535156-8.53125v-8.535157h20.804687c11.75.003907 21.992187-7.992187 24.839844-19.386718l22.878906-91.546875h51.199219c3.816406 0 7.164062-2.527344 8.210937-6.195313l15.300781-53.539062h163.96875c14.136719 0 25.597657-11.460938 25.597657-25.597656h17.066406c9.425781 0 17.066406-7.640626 17.066406-17.066407zm-162.132812-8.535156v-17.066407h17.066406v17.066407zm-34.132813 0v-17.066407h17.066406v17.066407zm68.265625-17.066407h17.066407v8.535157c0 4.710937-3.820313 8.53125-8.53125 8.53125h-8.535157zm-93.863281-85.332031v-59.734375h102.398438v59.734375c.070312 20.890625-15.070313 38.722657-35.695313 42.042969-2.300781.421875-4.632813.632812-6.972656.625h-17.066407c-2.394531.003906-4.785156-.214844-7.140624-.648438-20.554688-3.382812-35.613282-21.191406-35.523438-42.019531zm42.664062 59.730469h17.066407v8.535156h-17.066407zm-34.132812 25.601562v17.066407h-8.53125c-4.714844 0-8.535156-3.820313-8.535156-8.53125v-8.535157zm-238.933594 59.734376v-51.199219h17.066406v51.199219zm34.132813-17.066407v-17.066406h8.535156v17.066406zm80.292969 189.796875c-.949219 3.804688-4.367188 6.472656-8.289063 6.46875h-50.140625c-4.714844.003906-8.539062-3.8125-8.542969-8.523437 0-.703125.085938-1.402344.257813-2.082031l35.753906-142.996094h67.746094zm84.195312-104.464844h-40.496094l10.664063-42.667968h41.984375zm202.445312-68.265624c0 4.710937-3.820312 8.53125-8.53125 8.53125h-332.800781v-68.265626h145.066407v8.535157c0 14.136719 11.460937 25.597656 25.601562 25.597656h102.398438c14.140624 0 25.601562-11.460937 25.601562-25.597656v-8.535157h34.132812c4.710938 0 8.53125 3.820313 8.53125 8.535157zm17.066407-17.066407v-17.066406h17.066406v17.066406zm0 0"/><path d="m503.464844 187.734375h-17.066406c-4.710938 0-8.53125 3.820313-8.53125 8.53125 0 4.714844 3.820312 8.535156 8.53125 8.535156h17.066406c4.714844 0 8.535156-3.820312 8.535156-8.535156 0-4.710937-3.820312-8.53125-8.535156-8.53125zm0 0"/><path d="m477.867188 179.199219c2.261718 0 4.433593-.898438 6.035156-2.5l17.066406-17.066407c3.273438-3.390624 3.179688-8.792968-.210938-12.066406-3.308593-3.195312-8.550781-3.195312-11.855468 0l-17.066406 17.066406c-3.332032 3.332032-3.332032 8.738282 0 12.070313 1.597656 1.597656 3.769531 2.496094 6.03125 2.496094zm0 0"/><path d="m483.898438 215.832031c-3.390626-3.273437-8.789063-3.179687-12.066407.210938-3.191406 3.308593-3.191406 8.550781 0 11.855469l17.066407 17.066406c3.390624 3.273437 8.792968 3.183594 12.066406-.207032 3.195312-3.308593 3.195312-8.550781 0-11.859374zm0 0"/></g></svg>