<svg height="511pt" viewBox="-66 0 511 511.99963" width="511pt" xmlns="http://www.w3.org/2000/svg"><path d="m10.5 462h220v40h-220zm0 0" fill="#fff"/><path d="m230.5 210v252h-220v-252zm0 0" fill="#ff5284"/><path d="m170.5 294.199219-25 25.621093 5.898438 36.179688-30.898438-17.078125-30.902344 17.078125 5.902344-36.179688-25-25.621093 34.550781-5.277344 15.449219-32.921875 15.449219 32.921875zm0 0" fill="#ffe35c"/><path d="m219.6875 174.320312c-6.929688-10.039062-16.929688-18.1875-29.1875-24.320312v-40h-40v-60h-60v60h-40v40c-24.511719 12.261719-40 32.589844-40 60h220c0-13.699219-3.871094-25.640625-10.8125-35.679688zm0 0" fill="#fff"/><path d="m90.5 50h60v60h-60zm0 0" fill="#ffe35c"/><path d="m70.5 432c5.519531 0 10-4.480469 10-10s-4.480469-10-10-10-10 4.480469-10 10 4.480469 10 10 10zm0 0"/><path d="m150.5 40h-60c-5.523438 0-10 4.476562-10 10v50h-30c-5.523438 0-10 4.476562-10 10v34.03125c-25.851562 14.902344-40 38.121094-40 65.96875v292c0 5.523438 4.476562 10 10 10h220c5.519531 0 10-4.476562 10-10v-292c0-28.816406-15.019531-51.589844-40-65.96875v-34.03125c0-5.523438-4.480469-10-10-10h-30v-50c0-5.523438-4.476562-10-10-10zm-50 20h40v40h-40zm120 392h-200v-232h200zm-200 40v-20h200v20zm199.140625-292h-198.277344c3.648438-20.609375 18.324219-32.929688 31.566407-40h135.140624c16.285157 8.675781 28.347657 21.761719 31.570313 40zm-39.140625-60h-120v-20h120zm0 0"/><path d="m84.816406 323.191406-5.085937 31.199219c-.617188 3.777344.980469 7.578125 4.109375 9.785156 3.128906 2.203125 7.246094 2.429688 10.597656.574219l26.0625-14.40625 26.0625 14.40625c3.375 1.867188 7.492188 1.613281 10.597656-.574219 3.128906-2.207031 4.726563-6.007812 4.109375-9.785156l-5.089843-31.199219 21.476562-22.007812c2.617188-2.683594 3.515625-6.601563 2.324219-10.15625-1.1875-3.554688-4.265625-6.144532-7.972657-6.710938l-29.273437-4.476562-13.183594-28.085938c-1.644531-3.511718-5.175781-5.753906-9.050781-5.753906-3.878906 0-7.40625 2.242188-9.054688 5.753906l-13.183593 28.085938-29.273438 4.476562c-3.707031.566406-6.785156 3.15625-7.972656 6.710938-1.1875 3.554687-.292969 7.472656 2.324219 10.15625zm21.742188-24.386718c3.296875-.503907 6.125-2.617188 7.542968-5.636719l6.398438-13.628907 6.394531 13.628907c1.417969 3.019531 4.246094 5.132812 7.542969 5.636719l15.3125 2.339843-11.40625 11.691407c-2.21875 2.269531-3.222656 5.460937-2.714844 8.59375l2.585938 15.855468-12.875-7.117187c-1.507813-.832031-3.171875-1.25-4.839844-1.25-1.664062 0-3.332031.417969-4.835938 1.25l-12.878906 7.117187 2.585938-15.855468c.511718-3.132813-.496094-6.324219-2.710938-8.59375l-11.410156-11.691407zm0 0"/><path d="m170.5 412h-60c-5.523438 0-10 4.476562-10 10s4.476562 10 10 10h60c5.519531 0 10-4.476562 10-10s-4.480469-10-10-10zm0 0"/><path d="m280.5 70c0-5.523438-4.480469-10-10-10h-40c-5.523438 0-10 4.476562-10 10s4.476562 10 10 10h40c5.519531 0 10-4.476562 10-10zm0 0"/><path d="m350.5 80c5.519531 0 10-4.476562 10-10s-4.480469-10-10-10h-40c-5.523438 0-10 4.476562-10 10s4.476562 10 10 10zm0 0"/><path d="m380.363281 8.359375c-.910156-5.449219-6.070312-9.128906-11.507812-8.222656l-120 20c-5.449219.910156-9.128907 6.0625-8.222657 11.507812.910157 5.457031 6.070313 9.128907 11.507813 8.222657l120-20c5.449219-.910157 9.128906-6.0625 8.222656-11.507813zm0 0"/><path d="m248.855469 119.863281 120 20c5.445312.910157 10.597656-2.769531 11.507812-8.21875.90625-5.449219-2.773437-10.601562-8.222656-11.507812l-120-20c-5.449219-.90625-10.597656 2.773437-11.507813 8.21875-.90625 5.449219 2.773438 10.601562 8.222657 11.507812zm0 0"/></svg>