<svg height="512pt" viewBox="-36 0 512 512" width="512pt" xmlns="http://www.w3.org/2000/svg"><path d="m10 44v72c0 11.050781 8.949219 20 20 20h320c11.050781 0 20-8.949219 20-20 0-14.082031 0-56.386719 0-72zm0 0" fill="#fff"/><path d="m370 30v46h-40c-11.050781 0-20 8.949219-20 20v40c0 11.039062-8.960938 20-20 20-11.050781 0-20-8.949219-20-20v-30c0-16.558594-13.441406-30-30-30-16.570312 0-30 13.429688-30 30v10c0 11.039062-8.960938 20-20 20-11.050781 0-20-8.949219-20-20v-10c0-16.558594-13.441406-30-30-30-16.570312 0-30 13.429688-30 30v10c0 11.039062-8.960938 20-20 20-11.050781 0-20-8.949219-20-20v-20c0-11.050781-8.949219-20-20-20h-40v-46c0-11.050781 8.949219-20 20-20h320c11.050781 0 20 8.949219 20 20zm0 0" fill="#a0e4f8"/><path d="m230 316v146c0 22.089844-17.910156 40-40 40-22.078125 0-40-17.917969-40-40v-146c0-11.050781 8.949219-20 20-20h40c11.050781 0 20 8.949219 20 20zm0 0" fill="#ff5284"/><path d="m180 376c0 5.519531 4.480469 10 10 10s10-4.480469 10-10-4.480469-10-10-10-10 4.480469-10 10zm0 0"/><path d="m0 30v86c0 16.542969 13.457031 30 30 30h231.71875c4.128906 11.640625 15.246094 20 28.28125 20 13.335938 0 24.28125-8.613281 28.296875-20h31.703125c16.542969 0 30-13.457031 30-30v-30h30c5.515625 0 10 4.484375 10 10v83.058594c0 4.910156-3.515625 9.058594-8.355469 9.867187l-206.582031 34.421875c-14.523438 2.421875-25.0625 14.871094-25.0625 29.59375v33.058594h-10c-16.542969 0-30 13.457031-30 30v146c0 27.621094 22.375 50 50 50 27.570312 0 50-22.429688 50-50v-146c0-16.542969-13.457031-30-30-30h-10v-33.058594c0-4.910156 3.515625-9.058594 8.355469-9.867187l206.582031-34.421875c14.523438-2.421875 25.0625-14.871094 25.0625-29.59375v-83.058594c0-16.542969-13.457031-30-30-30h-30v-36c0-16.542969-13.457031-30-30-30h-320c-16.542969 0-30 13.457031-30 30zm220 286v146c0 16.542969-13.457031 30-30 30-16.570312 0-30-13.429688-30-30v-146c0-5.515625 4.484375-10 10-10h40c5.515625 0 10 4.484375 10 10zm-200-200v-30h30c5.515625 0 10 4.484375 10 10v20c0 3.507812.609375 6.871094 1.71875 10h-31.71875c-5.515625 0-10-4.484375-10-10zm141.71875 10h-43.421875c1.117187-3.171875 1.703125-6.539062 1.703125-10v-10c0-11.027344 8.972656-20 20-20 11.046875 0 20 8.953125 20 20v10c0 3.507812.609375 6.871094 1.71875 10zm98.28125 0h-41.703125c1.117187-3.171875 1.703125-6.539062 1.703125-10v-10c0-11.027344 8.972656-20 20-20 11.046875 0 20 8.953125 20 20zm100-10c0 5.515625-4.484375 10-10 10h-30v-30c0-5.515625 4.484375-10 10-10h30zm0-86v36h-30c-16.542969 0-30 13.457031-30 30v40c0 5.519531-4.476562 10-10 10-5.515625 0-10-4.484375-10-10v-30c0-22.097656-17.898438-40-40-40-22.054688 0-40 17.945312-40 40v10c0 5.519531-4.476562 10-10 10-5.515625 0-10-4.484375-10-10v-10c0-22.097656-17.898438-40-40-40-22.054688 0-40 17.945312-40 40v10c0 5.519531-4.476562 10-10 10-5.515625 0-10-4.484375-10-10v-20c0-16.542969-13.457031-30-30-30h-30v-36c0-5.515625 4.484375-10 10-10h320c5.515625 0 10 4.484375 10 10zm0 0"/><path d="m190 406c-5.523438 0-10 4.476562-10 10v46c0 5.523438 4.476562 10 10 10s10-4.476562 10-10v-46c0-5.523438-4.476562-10-10-10zm0 0"/></svg>