<?xml version="1.0" encoding="UTF-8"?>
<!DOCTYPE svg PUBLIC "-//W3C//DTD SVG 1.1//EN" "http://www.w3.org/Graphics/SVG/1.1/DTD/svg11.dtd">
<!-- Creator: CorelDRAW 2017 -->
<svg xmlns="http://www.w3.org/2000/svg" xml:space="preserve" width="210mm" height="297mm" version="1.1" style="shape-rendering:geometricPrecision; text-rendering:geometricPrecision; image-rendering:optimizeQuality; fill-rule:evenodd; clip-rule:evenodd"
viewBox="0 0 210 297"
 xmlns:xlink="http://www.w3.org/1999/xlink">
 <defs>
  <style type="text/css">
   <![CDATA[
    .fil6 {fill:#FEFEFE}
    .fil2 {fill:#FEFEFE}
    .fil7 {fill:#00AFEF}
    .fil1 {fill:#00AFEF}
    .fil4 {fill:#19323C}
    .fil3 {fill:#19323C}
    .fil5 {fill:#30BCED}
    .fil0 {fill:white}
   ]]>
  </style>
 </defs>
 <g id="Camada_x0020_1">
  <metadata id="CorelCorpID_0Corel-Layer"/>
  <g id="_758487296">
   <path class="fil0" d="M-124.0398 32.4678l0 3.5719c0,0.5482 0.444,0.9922 0.9922,0.9922l15.875 0c0.5482,0 0.9922,-0.444 0.9922,-0.9922 0,-0.6986 0,-2.7973 0,-3.5719l-17.8594 0zm0 0z"/>
   <path class="fil1" d="M-106.1804 31.7733l0 2.282 -1.9844 0c-0.5482,0 -0.9922,0.444 -0.9922,0.9922l0 1.9844c0,0.5476 -0.4445,0.9922 -0.9922,0.9922 -0.5482,0 -0.9922,-0.444 -0.9922,-0.9922l0 -1.4883c0,-0.8215 -0.6668,-1.4883 -1.4882,-1.4883 -0.8221,0 -1.4883,0.6663 -1.4883,1.4883l0 0.4961c0,0.5476 -0.4446,0.9922 -0.9922,0.9922 -0.5482,0 -0.9922,-0.444 -0.9922,-0.9922l0 -0.4961c0,-0.8215 -0.6668,-1.4883 -1.4883,-1.4883 -0.822,0 -1.4882,0.6663 -1.4882,1.4883l0 0.4961c0,0.5476 -0.4446,0.9922 -0.9922,0.9922 -0.5483,0 -0.9922,-0.444 -0.9922,-0.9922l0 -0.9922c0,-0.5482 -0.444,-0.9922 -0.9922,-0.9922l-1.9844 0 0 -2.282c0,-0.5483 0.444,-0.9922 0.9922,-0.9922l15.875 0c0.5482,0 0.9922,0.4439 0.9922,0.9922l0 0zm0 0z"/>
   <path class="fil2" d="M-113.1257 45.9616l0 7.2429c0,1.0959 -0.8885,1.9844 -1.9844,1.9844 -1.0953,0 -1.9844,-0.8889 -1.9844,-1.9844l0 -7.2429c0,-0.5483 0.444,-0.9922 0.9922,-0.9922l1.9844 0c0.5482,0 0.9922,0.4439 0.9922,0.9922zm0 0z"/>
   <path class="fil3" d="M-115.6062 48.9381c0,0.2738 0.2223,0.4961 0.4961,0.4961 0.2738,0 0.4961,-0.2223 0.4961,-0.4961 0,-0.2738 -0.2223,-0.4961 -0.4961,-0.4961 -0.2738,0 -0.4961,0.2223 -0.4961,0.4961zm0 0z"/>
   <path class="fil4" d="M-124.5359 31.7733l0 4.2664c0,0.8207 0.6676,1.4882 1.4883,1.4882l11.4954 0c0.2049,0.5775 0.7564,0.9922 1.403,0.9922 0.6616,0 1.2046,-0.4273 1.4038,-0.9922l1.5728 0c0.8207,0 1.4883,-0.6675 1.4883,-1.4882l0 -1.4883 1.4883 0c0.2736,0 0.4961,0.2225 0.4961,0.4961l0 4.1205c0,0.2436 -0.1744,0.4494 -0.4145,0.4895l-10.2484 1.7076c-0.7205,0.1202 -1.2434,0.7378 -1.2434,1.4682l0 1.64 -0.4961 0c-0.8207,0 -1.4883,0.6676 -1.4883,1.4882l0 7.243c0,1.3703 1.1101,2.4805 2.4805,2.4805 1.3678,0 2.4805,-1.1127 2.4805,-2.4805l0 -7.243c0,-0.8206 -0.6676,-1.4882 -1.4883,-1.4882l-0.4961 0 0 -1.64c0,-0.2436 0.1744,-0.4494 0.4145,-0.4895l10.2484 -1.7077c0.7205,-0.1201 1.2433,-0.7377 1.2433,-1.4681l0 -4.1205c0,-0.8207 -0.6676,-1.4883 -1.4882,-1.4883l-1.4883 0 0 -1.7859c0,-0.8207 -0.6676,-1.4883 -1.4883,-1.4883l-15.875 0c-0.8207,0 -1.4883,0.6676 -1.4883,1.4883zm10.9141 14.1883l0 7.2429c0,0.8207 -0.6676,1.4883 -1.4883,1.4883 -0.822,0 -1.4883,-0.6662 -1.4883,-1.4883l0 -7.2429c0,-0.2737 0.2225,-0.4961 0.4961,-0.4961l1.9844 0c0.2736,0 0.4961,0.2224 0.4961,0.4961zm-9.9219 -9.9219l0 -1.4883 1.4883 0c0.2736,0 0.4961,0.2225 0.4961,0.4961l0 0.9922c0,0.174 0.0302,0.3409 0.0853,0.4961l-1.5736 0c-0.2736,0 -0.4961,-0.2225 -0.4961,-0.4961l0 0zm7.0306 0.4961l-2.1541 0c0.0554,-0.1574 0.0845,-0.3244 0.0845,-0.4961l0 -0.4961c0,-0.5471 0.4451,-0.9922 0.9921,-0.9922 0.5481,0 0.9922,0.4441 0.9922,0.9922l0 0.4961c0,0.174 0.0303,0.3408 0.0853,0.4961zm4.8757 0l-2.0689 0c0.0554,-0.1574 0.0845,-0.3244 0.0845,-0.4961l0 -0.4961c0,-0.5471 0.4451,-0.9922 0.9922,-0.9922 0.548,0 0.9922,0.4441 0.9922,0.9922l0 0.9922zm4.9609 -0.4961c0,0.2736 -0.2225,0.4961 -0.4961,0.4961l-1.4883 0 0 -1.4883c0,-0.2736 0.2225,-0.4961 0.4961,-0.4961l1.4883 0 0 1.4883zm0 -4.2664l0 1.7859 -1.4883 0c-0.8207,0 -1.4883,0.6676 -1.4883,1.4883l0 1.9844c0,0.2738 -0.222,0.496 -0.496,0.496 -0.2737,0 -0.4961,-0.2224 -0.4961,-0.496l0 -1.4883c0,-1.0963 -0.888,-1.9844 -1.9844,-1.9844 -1.0941,0 -1.9844,0.8903 -1.9844,1.9844l0 0.4961c0,0.2738 -0.2221,0.4961 -0.4961,0.4961 -0.2736,0 -0.4961,-0.2225 -0.4961,-0.4961l0 -0.4961c0,-1.0963 -0.8879,-1.9844 -1.9844,-1.9844 -1.0941,0 -1.9843,0.8903 -1.9843,1.9844l0 0.4961c0,0.2738 -0.2221,0.4961 -0.4961,0.4961 -0.2737,0 -0.4961,-0.2225 -0.4961,-0.4961l0 -0.9922c0,-0.8207 -0.6676,-1.4883 -1.4883,-1.4883l-1.4883 0 0 -1.7859c0,-0.2737 0.2225,-0.4961 0.4961,-0.4961l15.875 0c0.2736,0 0.4961,0.2224 0.4961,0.4961l0 0zm0 0z"/>
   <path class="fil3" d="M-115.1101 50.4264c-0.274,0 -0.4961,0.2221 -0.4961,0.4961l0 2.282c0,0.274 0.2221,0.4961 0.4961,0.4961 0.274,0 0.4961,-0.222 0.4961,-0.4961l0 -2.282c0,-0.274 -0.2221,-0.4961 -0.4961,-0.4961zm0 0z"/>
  </g>
  <g id="_758495520">
   <path class="fil2" d="M-124.0229 80.0822l0 12.8488c0,0.5482 0.444,0.9922 0.9922,0.9922l13.8906 0c0.5482,0 0.9922,-0.444 0.9922,-0.9922 0,-2.8159 0,-9.987 0,-12.8488l-15.875 0zm0 0z"/>
   <path class="fil5" d="M-108.1479 81.4216l-0.9922 0c-0.5482,0 -0.9922,0.444 -0.9922,0.9922l0 1.9844c0,0.5476 -0.4445,0.9922 -0.9922,0.9922 -0.5482,0 -0.9922,-0.444 -0.9922,-0.9922l0 -1.4883c0,-0.4108 -0.1666,-0.7829 -0.436,-1.0522 -0.2694,-0.2694 -0.6414,-0.4361 -1.0522,-0.4361 -0.8221,0 -1.4883,0.6663 -1.4883,1.4883l0 3.4727c0,0.5476 -0.4446,0.9922 -0.9922,0.9922 -0.5482,0 -0.9922,-0.444 -0.9922,-0.9922l0 -3.4727c0,-0.4108 -0.1667,-0.7829 -0.436,-1.0522 -0.2694,-0.2694 -0.6415,-0.4361 -1.0523,-0.4361 -0.822,0 -1.4882,0.6663 -1.4882,1.4883l0 0.4961c0,0.5476 -0.4446,0.9922 -0.9922,0.9922 -0.5483,0 -0.9922,-0.444 -0.9922,-0.9922l0 -0.9922c0,-0.5482 -0.444,-0.9922 -0.9922,-0.9922l-0.9922 0c0,-0.4802 0,-3.4854 0,-3.9687l15.875 0 0 3.9687zm0 0z"/>
   <path class="fil2" d="M-113.1088 69.5154c0.5482,0 0.9922,0.4439 0.9922,0.9922 0,0.5476 -0.4446,0.9922 -0.9922,0.9922l-5.9532 0c-0.5482,0 -0.9921,-0.444 -0.9921,-0.9922 0,-0.5477 0.4445,-0.9922 0.9921,-0.9922l5.9532 0zm0 0z"/>
   <path class="fil4" d="M-121.0463 79.9333c0.2738,0 0.4961,-0.2222 0.4961,-0.4961 0,-0.2738 -0.2223,-0.496 -0.4961,-0.496 -0.2738,0 -0.4961,0.2222 -0.4961,0.496 0,0.2739 0.2223,0.4961 0.4961,0.4961zm0 0z"/>
   <path class="fil4" d="M-105.6675 76.4607c0,-3.4165 -2.6705,-6.2206 -6.0337,-6.4355 -0.2009,-0.5846 -0.7557,-1.0059 -1.4076,-1.0059l-5.9532 0c-0.6656,0 -1.2123,0.4325 -1.4082,1.0059 -3.363,0.2153 -6.0331,3.0192 -6.0331,6.4355l0 1.9844c0,0.8207 0.6675,1.4882 1.4882,1.4882l0.4961 0 0 12.9977c0,0.8207 0.6676,1.4883 1.4883,1.4883l13.8906 0c0.8207,0 1.4883,-0.6676 1.4883,-1.4883l0 -12.9977 0.4961 0c0.8207,0 1.4882,-0.6675 1.4882,-1.4882l0 -1.9844zm-13.3945 -6.4492l5.9532 0c0.2736,0 0.4961,0.2224 0.4961,0.4961 0,0.2738 -0.2223,0.4961 -0.4961,0.4961l-5.9532 0c-0.2736,0 -0.496,-0.2225 -0.496,-0.4961 0,-0.2739 0.2222,-0.4961 0.496,-0.4961l0 0zm10.418 10.914l-0.4961 0c-0.8207,0 -1.4883,0.6676 -1.4883,1.4883l0 1.9844c0,0.2738 -0.2222,0.4961 -0.4961,0.4961 -0.2736,0 -0.4961,-0.2225 -0.4961,-0.4961l0 -1.4883c0,-1.0962 -0.8879,-1.9844 -1.9843,-1.9844 -1.0941,0 -1.9844,0.8903 -1.9844,1.9844l0 3.4727c0,0.2738 -0.2223,0.4961 -0.4961,0.4961 -0.2736,0 -0.4961,-0.2225 -0.4961,-0.4961l0 -3.4727c0,-1.0962 -0.8879,-1.9844 -1.9844,-1.9844 -1.0941,0 -1.9843,0.8903 -1.9843,1.9844l0 0.4961c0,0.2738 -0.2223,0.4961 -0.4961,0.4961 -0.2737,0 -0.4961,-0.2225 -0.4961,-0.4961l0 -0.9922c0,-0.8207 -0.6676,-1.4883 -1.4883,-1.4883l-0.4961 0 0 -2.9765 14.8828 0 0 2.9765zm-0.4961 12.5016l-13.8906 0c-0.2736,0 -0.4961,-0.2225 -0.4961,-0.4961l0 -11.0133 0.4961 0c0.2736,0 0.4961,0.2225 0.4961,0.4961l0 0.9922c0,0.8207 0.6676,1.4883 1.4883,1.4883 0.8222,0 1.4883,-0.6661 1.4883,-1.4883l0 -0.4961c0,-0.547 0.4451,-0.9922 0.9921,-0.9922 0.5481,0 0.9922,0.4442 0.9922,0.9922l0 3.4727c0,0.8207 0.6676,1.4882 1.4883,1.4882 0.8222,0 1.4883,-0.666 1.4883,-1.4882l0 -3.4727c0,-0.547 0.4451,-0.9922 0.9922,-0.9922 0.548,0 0.9922,0.4442 0.9922,0.9922l0 1.4883c0,0.8207 0.6676,1.4883 1.4882,1.4883 0.8223,0 1.4883,-0.6661 1.4883,-1.4883l0 -1.9844c0,-0.2736 0.2225,-0.4961 0.4961,-0.4961l0.4961 0 0 11.0133c0,0.2736 -0.2225,0.4961 -0.4961,0.4961l0 0zm2.4805 -14.982c0,0.2736 -0.2225,0.4961 -0.4961,0.4961l-0.4961 0 0 -1.4883c0,-0.274 -0.2221,-0.4961 -0.4961,-0.4961l-15.875 0c-0.274,0 -0.4961,0.2221 -0.4961,0.4961l0 1.4883 -0.4961 0c-0.2736,0 -0.4961,-0.2225 -0.4961,-0.4961l0 -1.9844c0,-2.8725 2.2311,-5.2338 5.0515,-5.4419 0.2089,0.5695 0.7565,0.977 1.3977,0.977l5.9532 0.0001c0.6552,0 1.1947,-0.4194 1.3983,-0.9771 2.82,0.2085 5.0509,2.5694 5.0509,5.4419l0 1.9844zm0 0z"/>
   <path class="fil4" d="M-119.062 79.9333l7.9375 0c0.274,0 0.4961,-0.222 0.4961,-0.4961 0,-0.274 -0.222,-0.496 -0.4961,-0.496l-7.9375 0c-0.274,0 -0.496,0.222 -0.496,0.496 0,0.2741 0.222,0.4961 0.496,0.4961zm0 0z"/>
  </g>
  <g id="_758490944">
   <path class="fil2" d="M-101.2413 6.5826l0 1.9844c0,1.0959 -0.8885,1.9846 -1.9844,1.9846l-2.9765 0c-0.5483,0 -0.9922,0.4439 -0.9922,0.9922l0 0.3904c0,1.4759 0.4027,2.8958 0.8681,4.2962 0.6048,1.8222 -1.0412,3.6818 -3.0248,3.1636 -1.4398,-0.3756 -2.1804,-1.972 -1.6316,-3.3168 0.4468,-1.094 0.8115,-2.9564 0.8115,-4.1381l0 -0.3953c0,-0.5483 -0.4439,-0.9922 -0.9921,-0.9922l-2.9768 0c-1.0959,0 -1.9844,-0.8887 -1.9844,-1.9846l0 -1.9843 14.8832 -0.0001zm0 0z"/>
   <path class="fil2" d="M-116.1245 4.5983l14.8832 0 0 1.9843 -14.8832 0 0 -1.9843zm0 0z"/>
   <path class="fil0" d="M-116.1245 -2.3474l14.8832 0 0 6.9457 -14.8832 0 0 -6.9457zm0 0z"/>
   <path class="fil5" d="M-101.2413 -4.9271l0 3.5721 -1.9844 0c-0.5482,0 -0.9922,0.444 -0.9922,0.9922l0 1.9843c0,0.5477 -0.4445,0.9922 -0.9922,0.9922 -0.5482,0 -0.9922,-0.4439 -0.9922,-0.9922l0 -1.4882c0,-0.8217 -0.6668,-1.4883 -1.4884,-1.4883 -0.8221,0 -1.4883,0.6662 -1.4883,1.4883l0 0.4961c0,0.5476 -0.4445,0.9921 -0.9922,0.9921 -0.5482,0 -0.9922,-0.4439 -0.9922,-0.9921l0 -0.4961c0,-0.8217 -0.6668,-1.4883 -1.4882,-1.4883 -0.8221,0 -1.4885,0.6662 -1.4885,1.4883l0 0.4961c0,0.5476 -0.4444,0.9921 -0.9922,0.9921 -0.5482,0 -0.9922,-0.4439 -0.9922,-0.9921l0 -5.5565 14.8832 0zm0 0z"/>
   <path class="fil4" d="M-111.1634 8.0709c-0.2738,0 -0.496,0.2223 -0.496,0.4961 0,0.2738 0.2222,0.4961 0.496,0.4961 0.2739,0 0.4961,-0.2223 0.4961,-0.4961 0,-0.2738 -0.2222,-0.4961 -0.4961,-0.4961zm0 0z"/>
   <path class="fil4" d="M-108.6829 16.0086c-0.547,0 -0.9922,0.4451 -0.9922,0.9923 0,0.5471 0.4452,0.9922 0.9922,0.9922 0.5473,0 0.9922,-0.4451 0.9922,-0.9922 0,-0.5472 -0.4449,-0.9923 -0.9922,-0.9923zm0 0z"/>
   <path class="fil4" d="M-107.1944 8.0709l-1.9846 0c-0.274,0 -0.4961,0.2221 -0.4961,0.4961 0,0.274 0.2221,0.4961 0.4961,0.4961l1.9846 0c0.2738,0 0.4961,-0.2221 0.4961,-0.4961 0,-0.274 -0.2223,-0.4961 -0.4961,-0.4961zm0 0z"/>
   <path class="fil4" d="M-116.6205 -4.9271l0 13.4941c0,1.3678 1.1127,2.4807 2.4804,2.4807l2.9767 0c0.2737,0 0.4961,0.2224 0.4961,0.4961l0 0.3953c0,1.1135 -0.3548,2.9226 -0.7749,3.9507 -0.7666,1.8791 0.5571,4.0869 2.7572,4.0869 2.0355,0 3.4633,-1.9935 2.8294,-3.9026 -0.5059,-1.5228 -0.8428,-2.8095 -0.8428,-4.1399l0 -0.3904c0,-0.2737 0.2225,-0.4961 0.4961,-0.4961l2.9766 0c1.3677,0 2.4806,-1.1129 2.4806,-2.4807l0 -13.4941c0,-0.274 -0.2222,-0.496 -0.4962,-0.496l-14.8832 0c-0.274,0 -0.496,0.222 -0.496,0.496zm6.4493 7.0447c0.8225,0 1.4883,-0.666 1.4883,-1.4882l0 -0.4961c0,-0.5471 0.4451,-0.9922 0.9922,-0.9922 0.548,0 0.9924,0.4441 0.9924,0.9922l0 1.4882c0,0.8207 0.6676,1.4883 1.4882,1.4883 0.8225,0 1.4883,-0.666 1.4883,-1.4883l0 -1.9843c0,-0.2736 0.2227,-0.4961 0.4961,-0.4961l1.4883 0 0 4.9611 -13.891 0 0 -2.0698c0.1553,0.055 0.3223,0.0852 0.4961,0.0852 0.8225,0 1.4883,-0.666 1.4883,-1.4882l0 -0.4961c0,-0.5471 0.4451,-0.9922 0.9924,-0.9922 0.5478,0 0.9922,0.4441 0.9922,0.9922l0 0.4961c0,0.8206 0.6676,1.4882 1.4882,1.4882l0 0zm-5.4572 2.9768l13.891 0 0 0.9922 -13.891 -0.0001 0 -0.9921zm12.4027 4.9609l-2.9765 0c-0.8207,0 -1.4885,0.6678 -1.4885,1.4884l0 0.3905c0,1.4637 0.3573,2.8386 0.8935,4.4524 0.439,1.3222 -0.5869,2.6285 -1.9353,2.5975 -1.4704,-0.0337 -2.2865,-1.5049 -1.791,-2.7194 0.4678,-1.1448 0.8484,-3.0854 0.8484,-4.3256l0 -0.3954c0,-0.8206 -0.6676,-1.4884 -1.4883,-1.4884l-2.9767 0c-0.8205,0 -1.4883,-0.6676 -1.4883,-1.4883l0 -1.4883 13.891 0 0 1.4883c0,0.8207 -0.6676,1.4883 -1.4883,1.4883l0 0zm-12.4027 -14.4863l13.891 0 0 2.5799 -1.4883 0c-0.8207,0 -1.4883,0.6676 -1.4883,1.4883l0 1.9843c0,0.2741 -0.2221,0.4961 -0.4961,0.4961 -0.2736,0 -0.4961,-0.2224 -0.4961,-0.4961l0 -1.4882c0,-1.0963 -0.8881,-1.9844 -1.9845,-1.9844 -1.0941,0 -1.9844,0.8901 -1.9844,1.9844l0 0.4961c0,0.2738 -0.222,0.4961 -0.4961,0.4961 -0.2736,0 -0.4961,-0.2225 -0.4961,-0.4961l0 -0.4961c0,-1.0963 -0.8879,-1.9844 -1.9843,-1.9844 -1.0943,0 -1.9846,0.8901 -1.9846,1.9844l0 0.4961c0,0.2738 -0.222,0.4961 -0.4961,0.4961 -0.2734,0 -0.4961,-0.2225 -0.4961,-0.4961l0 -5.0604zm0 0z"/>
  </g>
  <g id="_758482688">
   <path class="fil6" d="M121.9428 119.4271c0,-0.4676 -0.379,-0.8466 -0.8466,-0.8466l-2.1167 0 0 0.8466c0,0.4676 -0.3791,0.8466 -0.8467,0.8466l-5.0799 0.0001c-0.4676,0 -0.8469,-0.3791 -0.8469,-0.8467l0 -0.8466 -7.6199 0c-0.2339,0 -0.4234,0.1895 -0.4234,0.4232l0 3.3866c0,0.2339 0.1895,0.4234 0.4234,0.4234l16.5101 0c0.4676,0 0.8466,-0.379 0.8466,-0.8466l0 -2.54zm0 0z"/>
   <path class="fil6" d="M123.2127 119.8503l-1.2699 0 0 1.6934 1.2699 0c0.2339,0 0.4234,-0.1896 0.4234,-0.4233l0 -0.8466c0,-0.2339 -0.1895,-0.4234 -0.4234,-0.4234l0 -0.0001zm0 0z"/>
   <path class="fil6" d="M102.8928 119.4271c0,-0.2339 -0.1895,-0.4234 -0.4234,-0.4234l-0.8467 0c-0.2337,0 -0.4232,0.1895 -0.4232,0.4234l0 2.54c0,0.2337 0.1895,0.4232 0.4232,0.4232l0.8467 0c0.2339,0 0.4234,-0.1895 0.4234,-0.4232l0 -2.54zm0 0z"/>
   <path class="fil6" d="M102.8928 119.8503l1.2701 0 0 1.6934 -1.2701 0 0 -1.6934zm0 0z"/>
   <path class="fil2" d="M103.579 130.2284c-0.1134,0.4536 0.1624,0.9133 0.6161,1.0267 0.0672,0.0168 0.1362,0.0254 0.2056,0.0252l2.4874 0c0.3888,0.0002 0.7275,-0.2642 0.8217,-0.6413l1.9563 -7.8253 -4.2333 0 -1.8538 7.4147zm0 0z"/>
   <path class="fil7" d="M116.0161 117.3104c0.142,0.0004 0.2837,-0.0124 0.4234,-0.038 1.222,-0.2048 2.1171,-1.2629 2.1167,-2.502l0 -3.3866 -5.9268 0 0 3.3866c-0.0005,1.2391 0.8946,2.2972 2.1168,2.502 0.1395,0.0256 0.2814,0.0384 0.4232,0.038l0.8467 0zm0 0z"/>
   <path class="fil6" d="M116.4395 118.5805l0 -1.3083c-0.1397,0.0258 -0.2814,0.0386 -0.4234,0.0382l-0.8467 0c-0.142,0.0004 -0.2837,-0.0124 -0.4232,-0.0382l0 1.3083 1.6933 0zm0 0z"/>
   <path class="fil6" d="M115.5928 120.2738l1.6933 0 0 -1.6933 -1.6933 0 0 1.6933zm0 0z"/>
   <path class="fil6" d="M118.1328 120.2738c0.4676,0 0.8466,-0.3791 0.8466,-0.8467l0 -0.8466 -1.6933 0 0 1.6933 0.8467 0zm0 0z"/>
   <path class="fil6" d="M113.0529 120.2738l0.8466 0 0 -1.6933 -1.6935 0 0 0.8466c0,0.4676 0.3793,0.8466 0.8469,0.8466l0 0.0001zm0 0z"/>
   <path class="fil6" d="M115.5928 120.2738l0 -1.6933 -1.6933 0 0 1.6933 1.6933 0zm0 0z"/>
   <path class="fil3" d="M124.0594 120.2738c0,-0.4676 -0.3791,-0.8467 -0.8467,-0.8467l-0.8466 0c0,-0.7015 -0.5686,-1.2701 -1.2699,-1.2701l-4.2335 0 0 -0.5503c1.2583,-0.3688 2.1212,-1.5251 2.1168,-2.8363l0 -3.3866c0,-0.2339 -0.1896,-0.4234 -0.4235,-0.4234l-5.9266 0c-0.2339,0 -0.4234,0.1895 -0.4234,0.4234l0 3.3866c-0.0046,1.3112 0.8585,2.4677 2.1168,2.8363l0 0.5503 -9.7367 0c-0.4676,0 -0.8466,0.3791 -0.8466,0.8467l0 0.4234 -0.4235 0c0,-0.4676 -0.379,-0.8466 -0.8466,-0.8466l-0.8467 0c-0.4676,0 -0.8466,0.379 -0.8466,0.8466l0 2.54c0,0.4676 0.379,0.8466 0.8466,0.8466l0.8467 0c0.4676,0 0.8466,-0.379 0.8466,-0.8466l0.4235 0 0 0.4232c0,0.4676 0.379,0.8466 0.8466,0.8466l0.3049 0.0001 -1.7226 6.8885c-0.1704,0.6804 0.2434,1.3701 0.9238,1.5402 0.1009,0.0252 0.2044,0.038 0.3085,0.038l0.6087 0 0 0.4234c0,0.7013 0.5687,1.2701 1.27,1.2701l15.24 0c0.2339,0 0.4234,0.1895 0.4234,0.4232l0 1.2701c0,0.2337 -0.1895,0.4232 -0.4234,0.4232l-11.4299 0c-0.2339,0 -0.4234,0.1895 -0.4234,0.4234 0,0.2337 0.1895,0.4233 0.4234,0.4233l11.4299 0c0.7015,0 1.2701,-0.5686 1.2701,-1.2701l0 -1.2699c0,-0.7015 -0.5686,-1.27 -1.2701,-1.27l-15.24 -0.0001c-0.2339,0 -0.4234,-0.1895 -0.4234,-0.4232l0 -0.4234 1.0321 0c0.5829,0.0002 1.091,-0.3965 1.2323,-0.9618l1.135 -4.5416 2.54 0c0.1893,0 0.3554,-0.1253 0.4073,-0.3073l0.7591 -2.6561 8.1344 0.0001c0.7013,0 1.2699,-0.5686 1.2699,-1.2699l0.8466 0c0.4676,0 0.8467,-0.3791 0.8467,-0.8467l0 -0.8466zm-8.0433 -0.4235l0 -0.8466 0.8466 0 0 0.8466 -0.8466 0zm-1.6934 0l0 -0.8466 0.8467 0 0 0.8466 -0.8467 0zm3.3867 -0.8466l0.8466 0 0 0.4234c0,0.2337 -0.1895,0.4232 -0.4232,0.4232l-0.4234 0 0 -0.8466zm-4.6565 -4.2333l0 -2.9634 5.0799 0 0 2.9634c0.0035,1.0364 -0.7476,1.921 -1.7708,2.0857 -0.1142,0.021 -0.2299,0.0314 -0.3459,0.031l-0.8467 0.0001c-0.1188,0.0002 -0.2374,-0.0107 -0.3542,-0.0322 -1.0197,-0.1678 -1.7668,-1.0513 -1.7623,-2.0846zm2.1165 2.9632l0.8467 0 0 0.4234 -0.8467 0 0 -0.4234zm-1.6933 1.2701l0 0.8466 -0.4232 0c-0.2339,0 -0.4235,-0.1895 -0.4235,-0.4232l0 -0.4234 0.8467 0zm-11.8534 2.9634l0 -2.54 0.8467 0 0 2.54 -0.8467 0zm1.6933 -0.8467l0 -0.8466 0.4235 0 0 0.8466 -0.4235 0zm3.9833 9.4157c-0.0471,0.1888 -0.2166,0.3211 -0.4112,0.3209l-2.4874 0c-0.2339,0.0002 -0.4236,-0.1891 -0.4238,-0.4228 0,-0.0349 0.0042,-0.0696 0.0128,-0.1033l1.7737 -7.094 3.3608 0.0001 -1.8249 7.2991zm4.1769 -5.1824l-2.009 0 0.5291 -2.1167 2.0828 0 -0.6029 2.1167zm10.0432 -3.3866c0,0.2337 -0.1895,0.4232 -0.4232,0.4232l-16.5101 0 0 -3.3866 7.1967 0 0 0.4234c0,0.7013 0.5686,1.2699 1.2701,1.2699l5.0799 0c0.7015,0 1.2701,-0.5686 1.2701,-1.2699l0 -0.4234 1.6933 0c0.2337,0 0.4232,0.1895 0.4232,0.4234l0 2.54zm0.8467 -0.8467l0 -0.8466 0.8466 0 0 0.8466 -0.8466 0zm0 0z"/>
   <path class="fil3" d="M125.7527 120.2738l-0.8467 0c-0.2337,0 -0.4232,0.1895 -0.4232,0.4232 0,0.2339 0.1895,0.4234 0.4232,0.4234l0.8467 0c0.2339,0 0.4234,-0.1895 0.4234,-0.4234 0,-0.2337 -0.1895,-0.4232 -0.4234,-0.4232l0 0zm0 0z"/>
   <path class="fil3" d="M124.4828 119.8503c0.1122,0 0.22,-0.0445 0.2994,-0.124l0.8467 -0.8466c0.1623,-0.1682 0.1577,-0.4362 -0.0105,-0.5986 -0.1641,-0.1585 -0.4242,-0.1585 -0.5881,0l-0.8467 0.8466c-0.1653,0.1653 -0.1653,0.4335 0,0.5988 0.0793,0.0793 0.187,0.1238 0.2992,0.1238l0 0zm0 0z"/>
   <path class="fil3" d="M124.782 121.6677c-0.1682,-0.1624 -0.436,-0.1578 -0.5986,0.0104 -0.1583,0.1642 -0.1583,0.4242 0,0.5882l0.8466 0.8466c0.1682,0.1624 0.4363,0.158 0.5987,-0.0103 0.1585,-0.1641 0.1585,-0.4241 0,-0.5883l-0.8467 -0.8466zm0 0z"/>
  </g>
  <g id="_757021024">
   <path class="fil0" d="M-130.3678 183.6882l10.9141 0 0 1.9844 -10.9141 0 0 -1.9844zm0 0z"/>
   <path class="fil7" d="M-119.4537 171.1867l0 12.5015 -10.9141 0 0 -12.5015 10.9141 0zm0 0z"/>
   <path class="fil2" d="M-122.4303 175.3637l-1.2402 1.2711 0.2926 1.7948 -1.5328 -0.8472 -1.5331 0.8472 0.2928 -1.7948 -1.2402 -1.2711 1.714 -0.2618 0.7664 -1.6332 0.7665 1.6332 1.714 0.2618zm0 0z"/>
   <path class="fil0" d="M-119.9901 169.4166c-0.3438,-0.498 -0.8399,-0.9022 -1.448,-1.2065l0 -1.9843 -1.9844 0 0 -2.9766 -2.9765 0 0 2.9765 -1.9844 0.0001 0 1.9843c-1.216,0.6083 -1.9844,1.6168 -1.9844,2.9766l10.9141 0c0,-0.6796 -0.1921,-1.272 -0.5364,-1.7701l0 0zm0 0z"/>
   <path class="fil2" d="M-126.399 163.2492l2.9765 0 0 2.9765 -2.9765 0.0001 0 -2.9766zm0 0z"/>
   <path class="fil3" d="M-127.3912 182.1999c0.2738,0 0.4961,-0.2222 0.4961,-0.4961 0,-0.2738 -0.2223,-0.496 -0.4961,-0.496 -0.2738,0 -0.4961,0.2222 -0.4961,0.496 0,0.2739 0.2223,0.4961 0.4961,0.4961zm0 0z"/>
   <path class="fil3" d="M-123.4225 162.7531l-2.9765 0c-0.274,0 -0.4961,0.2221 -0.4961,0.4961l0 2.4805 -1.4883 0c-0.274,0 -0.4961,0.222 -0.4961,0.4961l0 1.6882c-1.2825,0.7393 -1.9844,1.8912 -1.9844,3.2727l0 14.4859c0,0.274 0.2221,0.4961 0.4961,0.4961l10.9141 0c0.2738,0 0.4961,-0.2221 0.4961,-0.4961l0 -14.4859c0,-1.4296 -0.7451,-2.5594 -1.9844,-3.2727l0 -1.6883c0,-0.274 -0.2223,-0.4961 -0.4961,-0.4961l-1.4883 0.0001 0 -2.4805c0,-0.274 -0.2221,-0.4961 -0.4961,-0.4961zm-2.4804 0.9922l1.9843 0 0 1.9844 -1.9843 0 0 -1.9844zm5.9531 19.4468l-9.9219 0 0 -11.5093 9.9219 0 0 11.5093zm-9.9219 1.9844l0 -0.9922 9.9219 0 0 0.9922 -9.9219 0zm9.8793 -14.4859l-9.8365 0c0.181,-1.0224 0.9091,-1.6336 1.566,-1.9844l6.7043 0c0.8079,0.4304 1.4063,1.0796 1.5662,1.9844zm-1.9418 -2.9766l-5.9531 0 0 -0.9922 5.9531 0 0 0.9922zm0 0z"/>
   <path class="fil3" d="M-126.681 176.802l-0.2523 1.5478c-0.0306,0.1874 0.0486,0.3759 0.2039,0.4854 0.1552,0.1093 0.3595,0.1206 0.5257,0.0285l1.293 -0.7147 1.2929 0.7147c0.1674,0.0926 0.3717,0.08 0.5257,-0.0285 0.1553,-0.1095 0.2345,-0.298 0.2039,-0.4854l-0.2525 -1.5478 1.0654 -1.0918c0.1299,-0.1331 0.1744,-0.3275 0.1153,-0.5038 -0.0589,-0.1764 -0.2116,-0.3048 -0.3955,-0.3329l-1.4522 -0.2221 -0.6541 -1.3933c-0.0815,-0.1742 -0.2567,-0.2855 -0.449,-0.2855 -0.1924,0 -0.3674,0.1113 -0.4492,0.2855l-0.654 1.3933 -1.4522 0.2221c-0.1839,0.0281 -0.3366,0.1566 -0.3956,0.3329 -0.0589,0.1763 -0.0145,0.3707 0.1153,0.5038l1.0655 1.0918zm1.0786 -1.2098c0.1636,-0.025 0.3039,-0.1298 0.3742,-0.2796l0.3174 -0.6761 0.3173 0.6761c0.0703,0.1498 0.2106,0.2546 0.3742,0.2796l0.7596 0.1161 -0.5658 0.58c-0.1101,0.1126 -0.1599,0.2709 -0.1347,0.4263l0.1283 0.7866 -0.6388 -0.3531c-0.0748,-0.0413 -0.1573,-0.062 -0.2401,-0.062 -0.0825,0 -0.1653,0.0207 -0.2399,0.062l-0.6389 0.3531 0.1283 -0.7866c0.0254,-0.1554 -0.0246,-0.3137 -0.1345,-0.4263l-0.566 -0.58 0.7594 -0.1161zm0 0z"/>
   <path class="fil3" d="M-122.4303 181.2078l-2.9765 0c-0.274,0 -0.4961,0.222 -0.4961,0.496 0,0.2741 0.222,0.4961 0.4961,0.4961l2.9765 0c0.2738,0 0.4961,-0.222 0.4961,-0.4961 0,-0.274 -0.2223,-0.496 -0.4961,-0.496zm0 0z"/>
   <path class="fil3" d="M-116.9733 164.2414c0,-0.274 -0.2222,-0.4961 -0.496,-0.4961l-1.9844 0c-0.274,0 -0.4961,0.2221 -0.4961,0.4961 0,0.274 0.222,0.4961 0.4961,0.4961l1.9844 0c0.2738,0 0.496,-0.2221 0.496,-0.4961zm0 0z"/>
   <path class="fil3" d="M-113.5006 164.7375c0.2738,0 0.4961,-0.2221 0.4961,-0.4961 0,-0.274 -0.2223,-0.4961 -0.4961,-0.4961l-1.9844 0c-0.274,0 -0.4961,0.2221 -0.4961,0.4961 0,0.274 0.2221,0.4961 0.4961,0.4961l1.9844 0zm0 0z"/>
   <path class="fil3" d="M-112.0191 161.1834c-0.0452,-0.2703 -0.3012,-0.4529 -0.5709,-0.4079l-5.9531 0.9922c-0.2704,0.0452 -0.4529,0.3007 -0.408,0.5709 0.0452,0.2707 0.3012,0.4529 0.5709,0.4079l5.9532 -0.9922c0.2703,-0.0451 0.4529,-0.3007 0.4079,-0.5709zm0 0z"/>
   <path class="fil3" d="M-118.5431 166.7151l5.9531 0.9921c0.2701,0.0452 0.5257,-0.1373 0.5709,-0.4077 0.045,-0.2703 -0.1376,-0.5259 -0.4079,-0.5709l-5.9531 -0.9922c-0.2704,-0.0449 -0.5258,0.1376 -0.5709,0.4078 -0.045,0.2703 0.1376,0.5259 0.4079,0.5709zm0 0z"/>
  </g>
  <g id="_757023136">
   <path class="fil2" d="M-107.9413 128.9752l-3.2599 2.6293 -2.1545 4.316 17.1365 0 0 -6.9453c-1.1344,0 -11.2549,0 -11.7221,0zm0 0z"/>
   <path class="fil7" d="M-104.8318 116.0434c-0.7713,0.7715 -7.1223,7.1225 -7.8577,7.8577l-1.0914 6.86 2.1634 1.8902c0.3341,-0.3341 11.1978,-11.1977 11.6964,-11.6965l-4.9107 -4.9114zm0 0z"/>
   <path class="fil2" d="M-119.6348 112.5049l0 17.1365 6.9453 0c0,0 0,-16.7654 0,-17.1365l-6.9453 0zm0 0z"/>
   <path class="fil0" d="M-111.6973 132.4478c0,2.4662 -1.9991,4.4649 -4.4648,4.4649 -2.4662,0 -4.4649,-1.9987 -4.4649,-4.4649 0,-2.4591 1.9925,-4.4648 4.4649,-4.4648 2.4684,0 4.4648,2.0018 4.4648,4.4648zm0 0z"/>
   <path class="fil2" d="M-116.1621 129.9674c1.3677,0 2.4804,1.1123 2.4804,2.4804 0,1.3682 -1.1127,2.4805 -2.4804,2.4805 -1.3678,0 -2.4805,-1.1123 -2.4805,-2.4805 0,-1.3681 1.1127,-2.4804 2.4805,-2.4804zm0 0z"/>
   <path class="fil3" d="M-99.4934 132.4478c0.2738,0 0.4961,-0.2222 0.4961,-0.496 0,-0.2739 -0.2223,-0.4961 -0.4961,-0.4961 -0.2738,0 -0.4961,0.2222 -0.4961,0.4961 0,0.2738 0.2223,0.496 0.4961,0.496zm0 0z"/>
   <path class="fil3" d="M-116.1621 129.4713c-1.6414,0 -2.9766,1.3352 -2.9766,2.9766 0,1.6413 1.3352,2.9765 2.9766,2.9765 1.6413,0 2.9765,-1.3352 2.9765,-2.9765 0,-1.6414 -1.3352,-2.9766 -2.9765,-2.9766zm0 4.9609c-1.0942,0 -1.9844,-0.8902 -1.9844,-1.9844 0,-1.0941 0.8902,-1.9843 1.9844,-1.9843 1.0941,0 1.9843,0.8902 1.9843,1.9843 0,1.0942 -0.8902,1.9844 -1.9843,1.9844zm0 0z"/>
   <path class="fil3" d="M-96.2192 128.4791l-10.5245 0 7.1734 -7.1734c0.1937,-0.1938 0.1937,-0.5079 0,-0.7017l-4.9108 -4.9113c-0.093,-0.093 -0.2192,-0.1454 -0.3507,-0.1454 -0.1316,0 -0.2578,0.0524 -0.3508,0.1454l-7.0108 7.0108 0 -10.1986c0,-0.274 -0.2221,-0.4961 -0.4961,-0.4961l-6.9453 0c-0.274,0 -0.4961,0.2221 -0.4961,0.4961l0 16.9672c-0.6407,0.8538 -0.9922,1.9033 -0.9922,2.9758 0,2.7355 2.2254,4.9609 4.9609,4.9609 1.0725,0 2.122,-0.3515 2.9758,-0.9922l16.9672 0c0.274,0 0.4961,-0.2221 0.4961,-0.4961l0 -6.9453c0,-0.274 -0.2221,-0.4961 -0.4961,-0.4961l0 0zm-12.1206 -8.226l4.2093 4.2096 -3.5078 3.5077 -4.2098 -4.2092 3.5083 -3.5081zm-2.9339 11.3528c-0.1331,-0.7715 -0.4482,-1.5056 -0.9197,-2.1338l0 -4.653 3.8534 3.853 -2.9337 2.9338zm-7.865 -8.0877l0 -5.2586 5.9531 0 0 5.2586 -5.9531 0zm0 0.9922l5.9531 0 0 3.9675c-0.8496,-0.6387 -1.8873,-0.991 -2.9766,-0.991 -1.0892,0 -2.127,0.3523 -2.9765,0.991l0 -3.9675zm7.9104 8.4533l3.0036 -3.0037 0 5.4644 -3.9693 0c0.5364,-0.7147 0.8732,-1.565 0.9657,-2.4607l0 0zm3.9958 -3.4924l5.2586 0 0 5.9531 -5.2586 0 0 -5.9531zm2.4007 -12.7262l4.2092 4.2097 -2.8062 2.8064 -4.2093 -4.2099 2.8063 -2.8062zm-8.3538 -3.7441l0 4.2664 -5.9531 0 0 -4.2664 5.9531 0zm-6.9453 19.4468c0,-2.2049 1.7869,-3.9687 3.9688,-3.9687 2.2099,0 3.9687,1.7943 3.9687,3.9687 0,2.1639 -1.7489,3.9688 -3.9687,3.9688 -2.1885,0 -3.9688,-1.7803 -3.9688,-3.9688zm23.4156 2.9766l-2.282 0 0 -1.4883c0,-0.274 -0.2221,-0.4961 -0.4961,-0.4961 -0.274,0 -0.4961,0.2221 -0.4961,0.4961l0 1.4883 -0.9922 0 0 -5.9531 4.2664 0 0 5.9531zm0 0z"/>
  </g>
 </g>
</svg>
