<?xml version="1.0" encoding="UTF-8"?>
<!DOCTYPE svg PUBLIC "-//W3C//DTD SVG 1.1//EN" "http://www.w3.org/Graphics/SVG/1.1/DTD/svg11.dtd">
<!-- Creator: CorelDRAW 2017 -->
<svg xmlns="http://www.w3.org/2000/svg" xml:space="preserve" width="210mm" height="297mm" version="1.1" style="shape-rendering:geometricPrecision; text-rendering:geometricPrecision; image-rendering:optimizeQuality; fill-rule:evenodd; clip-rule:evenodd"
viewBox="0 0 210 297"
 xmlns:xlink="http://www.w3.org/1999/xlink">
 <defs>
  <style type="text/css">
   <![CDATA[
    .fil6 {fill:#FEFEFE}
    .fil2 {fill:#FEFEFE}
    .fil7 {fill:#00AFEF}
    .fil1 {fill:#00AFEF}
    .fil4 {fill:#19323C}
    .fil3 {fill:#19323C}
    .fil5 {fill:#30BCED}
    .fil0 {fill:white}
   ]]>
  </style>
 </defs>
 <g id="Camada_x0020_1">
  <metadata id="CorelCorpID_0Corel-Layer"/>
  <g id="_758495360">
   <path class="fil0" d="M-124.0398 32.4678l0 3.5719c0,0.5482 0.444,0.9922 0.9922,0.9922l15.875 0c0.5482,0 0.9922,-0.444 0.9922,-0.9922 0,-0.6986 0,-2.7973 0,-3.5719l-17.8594 0zm0 0z"/>
   <path class="fil1" d="M-106.1804 31.7733l0 2.282 -1.9844 0c-0.5482,0 -0.9922,0.444 -0.9922,0.9922l0 1.9844c0,0.5476 -0.4445,0.9922 -0.9922,0.9922 -0.5482,0 -0.9922,-0.444 -0.9922,-0.9922l0 -1.4883c0,-0.8215 -0.6668,-1.4883 -1.4882,-1.4883 -0.8221,0 -1.4883,0.6663 -1.4883,1.4883l0 0.4961c0,0.5476 -0.4446,0.9922 -0.9922,0.9922 -0.5482,0 -0.9922,-0.444 -0.9922,-0.9922l0 -0.4961c0,-0.8215 -0.6668,-1.4883 -1.4883,-1.4883 -0.822,0 -1.4882,0.6663 -1.4882,1.4883l0 0.4961c0,0.5476 -0.4446,0.9922 -0.9922,0.9922 -0.5483,0 -0.9922,-0.444 -0.9922,-0.9922l0 -0.9922c0,-0.5482 -0.444,-0.9922 -0.9922,-0.9922l-1.9844 0 0 -2.282c0,-0.5483 0.444,-0.9922 0.9922,-0.9922l15.875 0c0.5482,0 0.9922,0.4439 0.9922,0.9922l0 0zm0 0z"/>
   <path class="fil2" d="M-113.1257 45.9616l0 7.2429c0,1.0959 -0.8885,1.9844 -1.9844,1.9844 -1.0953,0 -1.9844,-0.8889 -1.9844,-1.9844l0 -7.2429c0,-0.5483 0.444,-0.9922 0.9922,-0.9922l1.9844 0c0.5482,0 0.9922,0.4439 0.9922,0.9922zm0 0z"/>
   <path class="fil3" d="M-115.6062 48.9381c0,0.2738 0.2223,0.4961 0.4961,0.4961 0.2738,0 0.4961,-0.2223 0.4961,-0.4961 0,-0.2738 -0.2223,-0.4961 -0.4961,-0.4961 -0.2738,0 -0.4961,0.2223 -0.4961,0.4961zm0 0z"/>
   <path class="fil4" d="M-124.5359 31.7733l0 4.2664c0,0.8207 0.6676,1.4882 1.4883,1.4882l11.4954 0c0.2049,0.5775 0.7564,0.9922 1.403,0.9922 0.6616,0 1.2046,-0.4273 1.4038,-0.9922l1.5728 0c0.8207,0 1.4883,-0.6675 1.4883,-1.4882l0 -1.4883 1.4883 0c0.2736,0 0.4961,0.2225 0.4961,0.4961l0 4.1205c0,0.2436 -0.1744,0.4494 -0.4145,0.4895l-10.2484 1.7076c-0.7205,0.1202 -1.2434,0.7378 -1.2434,1.4682l0 1.64 -0.4961 0c-0.8207,0 -1.4883,0.6676 -1.4883,1.4882l0 7.243c0,1.3703 1.1101,2.4805 2.4805,2.4805 1.3678,0 2.4805,-1.1127 2.4805,-2.4805l0 -7.243c0,-0.8206 -0.6676,-1.4882 -1.4883,-1.4882l-0.4961 0 0 -1.64c0,-0.2436 0.1744,-0.4494 0.4145,-0.4895l10.2484 -1.7077c0.7205,-0.1201 1.2433,-0.7377 1.2433,-1.4681l0 -4.1205c0,-0.8207 -0.6676,-1.4883 -1.4882,-1.4883l-1.4883 0 0 -1.7859c0,-0.8207 -0.6676,-1.4883 -1.4883,-1.4883l-15.875 0c-0.8207,0 -1.4883,0.6676 -1.4883,1.4883zm10.9141 14.1883l0 7.2429c0,0.8207 -0.6676,1.4883 -1.4883,1.4883 -0.822,0 -1.4883,-0.6662 -1.4883,-1.4883l0 -7.2429c0,-0.2737 0.2225,-0.4961 0.4961,-0.4961l1.9844 0c0.2736,0 0.4961,0.2224 0.4961,0.4961zm-9.9219 -9.9219l0 -1.4883 1.4883 0c0.2736,0 0.4961,0.2225 0.4961,0.4961l0 0.9922c0,0.174 0.0302,0.3409 0.0853,0.4961l-1.5736 0c-0.2736,0 -0.4961,-0.2225 -0.4961,-0.4961l0 0zm7.0306 0.4961l-2.1541 0c0.0554,-0.1574 0.0845,-0.3244 0.0845,-0.4961l0 -0.4961c0,-0.5471 0.4451,-0.9922 0.9921,-0.9922 0.5481,0 0.9922,0.4441 0.9922,0.9922l0 0.4961c0,0.174 0.0303,0.3408 0.0853,0.4961zm4.8757 0l-2.0689 0c0.0554,-0.1574 0.0845,-0.3244 0.0845,-0.4961l0 -0.4961c0,-0.5471 0.4451,-0.9922 0.9922,-0.9922 0.548,0 0.9922,0.4441 0.9922,0.9922l0 0.9922zm4.9609 -0.4961c0,0.2736 -0.2225,0.4961 -0.4961,0.4961l-1.4883 0 0 -1.4883c0,-0.2736 0.2225,-0.4961 0.4961,-0.4961l1.4883 0 0 1.4883zm0 -4.2664l0 1.7859 -1.4883 0c-0.8207,0 -1.4883,0.6676 -1.4883,1.4883l0 1.9844c0,0.2738 -0.222,0.496 -0.496,0.496 -0.2737,0 -0.4961,-0.2224 -0.4961,-0.496l0 -1.4883c0,-1.0963 -0.888,-1.9844 -1.9844,-1.9844 -1.0941,0 -1.9844,0.8903 -1.9844,1.9844l0 0.4961c0,0.2738 -0.2221,0.4961 -0.4961,0.4961 -0.2736,0 -0.4961,-0.2225 -0.4961,-0.4961l0 -0.4961c0,-1.0963 -0.8879,-1.9844 -1.9844,-1.9844 -1.0941,0 -1.9843,0.8903 -1.9843,1.9844l0 0.4961c0,0.2738 -0.2221,0.4961 -0.4961,0.4961 -0.2737,0 -0.4961,-0.2225 -0.4961,-0.4961l0 -0.9922c0,-0.8207 -0.6676,-1.4883 -1.4883,-1.4883l-1.4883 0 0 -1.7859c0,-0.2737 0.2225,-0.4961 0.4961,-0.4961l15.875 0c0.2736,0 0.4961,0.2224 0.4961,0.4961l0 0zm0 0z"/>
   <path class="fil3" d="M-115.1101 50.4264c-0.274,0 -0.4961,0.2221 -0.4961,0.4961l0 2.282c0,0.274 0.2221,0.4961 0.4961,0.4961 0.274,0 0.4961,-0.222 0.4961,-0.4961l0 -2.282c0,-0.274 -0.2221,-0.4961 -0.4961,-0.4961zm0 0z"/>
  </g>
  <g id="_758481216">
   <path class="fil2" d="M88.0811 104.461l0 12.8488c0,0.5482 0.444,0.9922 0.9922,0.9922l13.8906 0c0.5482,0 0.9922,-0.444 0.9922,-0.9922 0,-2.8159 0,-9.987 0,-12.8488l-15.875 0zm0 0z"/>
   <path class="fil5" d="M103.9561 105.8004l-0.9922 0c-0.5482,0 -0.9922,0.444 -0.9922,0.9922l0 1.9844c0,0.5476 -0.4445,0.9922 -0.9922,0.9922 -0.5482,0 -0.9922,-0.444 -0.9922,-0.9922l0 -1.4883c0,-0.4108 -0.1666,-0.7829 -0.436,-1.0522 -0.2694,-0.2694 -0.6414,-0.4361 -1.0522,-0.4361 -0.8221,0 -1.4883,0.6663 -1.4883,1.4883l0 3.4727c0,0.5476 -0.4446,0.9922 -0.9922,0.9922 -0.5482,0 -0.9922,-0.444 -0.9922,-0.9922l0 -3.4727c0,-0.4108 -0.1667,-0.7829 -0.436,-1.0522 -0.2694,-0.2694 -0.6415,-0.4361 -1.0523,-0.4361 -0.822,0 -1.4882,0.6663 -1.4882,1.4883l0 0.4961c0,0.5476 -0.4446,0.9922 -0.9922,0.9922 -0.5483,0 -0.9922,-0.444 -0.9922,-0.9922l0 -0.9922c0,-0.5482 -0.444,-0.9922 -0.9922,-0.9922l-0.9922 0c0,-0.4802 0,-3.4854 0,-3.9687l15.875 0 0 3.9687zm0 0z"/>
   <path class="fil2" d="M98.9952 93.8942c0.5482,0 0.9922,0.4439 0.9922,0.9922 0,0.5476 -0.4446,0.9922 -0.9922,0.9922l-5.9532 0c-0.5482,0 -0.9921,-0.444 -0.9921,-0.9922 0,-0.5477 0.4445,-0.9922 0.9921,-0.9922l5.9532 0zm0 0z"/>
   <path class="fil4" d="M91.0577 104.3121c0.2738,0 0.4961,-0.2222 0.4961,-0.4961 0,-0.2738 -0.2223,-0.496 -0.4961,-0.496 -0.2738,0 -0.4961,0.2222 -0.4961,0.496 0,0.2739 0.2223,0.4961 0.4961,0.4961zm0 0z"/>
   <path class="fil4" d="M106.4365 100.8395c0,-3.4165 -2.6705,-6.2206 -6.0337,-6.4355 -0.2009,-0.5846 -0.7557,-1.0059 -1.4076,-1.0059l-5.9532 0c-0.6656,0 -1.2123,0.4325 -1.4082,1.0059 -3.363,0.2153 -6.0331,3.0192 -6.0331,6.4355l0 1.9844c0,0.8207 0.6675,1.4882 1.4882,1.4882l0.4961 0 0 12.9977c0,0.8207 0.6676,1.4883 1.4883,1.4883l13.8906 0c0.8207,0 1.4883,-0.6676 1.4883,-1.4883l0 -12.9977 0.4961 0c0.8207,0 1.4882,-0.6675 1.4882,-1.4882l0 -1.9844zm-13.3945 -6.4492l5.9532 0c0.2736,0 0.4961,0.2224 0.4961,0.4961 0,0.2738 -0.2223,0.4961 -0.4961,0.4961l-5.9532 0c-0.2736,0 -0.496,-0.2225 -0.496,-0.4961 0,-0.2739 0.2222,-0.4961 0.496,-0.4961l0 0zm10.418 10.914l-0.4961 0c-0.8207,0 -1.4883,0.6676 -1.4883,1.4883l0 1.9844c0,0.2738 -0.2222,0.4961 -0.4961,0.4961 -0.2736,0 -0.4961,-0.2225 -0.4961,-0.4961l0 -1.4883c0,-1.0962 -0.8879,-1.9844 -1.9843,-1.9844 -1.0941,0 -1.9844,0.8903 -1.9844,1.9844l0 3.4727c0,0.2738 -0.2223,0.4961 -0.4961,0.4961 -0.2736,0 -0.4961,-0.2225 -0.4961,-0.4961l0 -3.4727c0,-1.0962 -0.8879,-1.9844 -1.9844,-1.9844 -1.0941,0 -1.9843,0.8903 -1.9843,1.9844l0 0.4961c0,0.2738 -0.2223,0.4961 -0.4961,0.4961 -0.2737,0 -0.4961,-0.2225 -0.4961,-0.4961l0 -0.9922c0,-0.8207 -0.6676,-1.4883 -1.4883,-1.4883l-0.4961 0 0 -2.9765 14.8828 0 0 2.9765zm-0.4961 12.5016l-13.8906 0c-0.2736,0 -0.4961,-0.2225 -0.4961,-0.4961l0 -11.0133 0.4961 0c0.2736,0 0.4961,0.2225 0.4961,0.4961l0 0.9922c0,0.8207 0.6676,1.4883 1.4883,1.4883 0.8222,0 1.4883,-0.6661 1.4883,-1.4883l0 -0.4961c0,-0.547 0.4451,-0.9922 0.9921,-0.9922 0.5481,0 0.9922,0.4442 0.9922,0.9922l0 3.4727c0,0.8207 0.6676,1.4882 1.4883,1.4882 0.8222,0 1.4883,-0.666 1.4883,-1.4882l0 -3.4727c0,-0.547 0.4451,-0.9922 0.9922,-0.9922 0.548,0 0.9922,0.4442 0.9922,0.9922l0 1.4883c0,0.8207 0.6676,1.4883 1.4882,1.4883 0.8223,0 1.4883,-0.6661 1.4883,-1.4883l0 -1.9844c0,-0.2736 0.2225,-0.4961 0.4961,-0.4961l0.4961 0 0 11.0133c0,0.2736 -0.2225,0.4961 -0.4961,0.4961l0 0zm2.4805 -14.982c0,0.2736 -0.2225,0.4961 -0.4961,0.4961l-0.4961 0 0 -1.4883c0,-0.274 -0.2221,-0.4961 -0.4961,-0.4961l-15.875 0c-0.274,0 -0.4961,0.2221 -0.4961,0.4961l0 1.4883 -0.4961 0c-0.2736,0 -0.4961,-0.2225 -0.4961,-0.4961l0 -1.9844c0,-2.8725 2.2311,-5.2338 5.0515,-5.4419 0.2089,0.5695 0.7565,0.977 1.3977,0.977l5.9532 0.0001c0.6552,0 1.1947,-0.4194 1.3983,-0.9771 2.82,0.2085 5.0509,2.5694 5.0509,5.4419l0 1.9844zm0 0z"/>
   <path class="fil4" d="M93.042 104.3121l7.9375 0c0.274,0 0.4961,-0.222 0.4961,-0.4961 0,-0.274 -0.222,-0.496 -0.4961,-0.496l-7.9375 0c-0.274,0 -0.496,0.222 -0.496,0.496 0,0.2741 0.222,0.4961 0.496,0.4961zm0 0z"/>
  </g>
  <g id="_758480576">
   <path class="fil2" d="M-101.2413 6.5826l0 1.9844c0,1.0959 -0.8885,1.9846 -1.9844,1.9846l-2.9765 0c-0.5483,0 -0.9922,0.4439 -0.9922,0.9922l0 0.3904c0,1.4759 0.4027,2.8958 0.8681,4.2962 0.6048,1.8222 -1.0412,3.6818 -3.0248,3.1636 -1.4398,-0.3756 -2.1804,-1.972 -1.6316,-3.3168 0.4468,-1.094 0.8115,-2.9564 0.8115,-4.1381l0 -0.3953c0,-0.5483 -0.4439,-0.9922 -0.9921,-0.9922l-2.9768 0c-1.0959,0 -1.9844,-0.8887 -1.9844,-1.9846l0 -1.9843 14.8832 -0.0001zm0 0z"/>
   <path class="fil2" d="M-116.1245 4.5983l14.8832 0 0 1.9843 -14.8832 0 0 -1.9843zm0 0z"/>
   <path class="fil0" d="M-116.1245 -2.3474l14.8832 0 0 6.9457 -14.8832 0 0 -6.9457zm0 0z"/>
   <path class="fil5" d="M-101.2413 -4.9271l0 3.5721 -1.9844 0c-0.5482,0 -0.9922,0.444 -0.9922,0.9922l0 1.9843c0,0.5477 -0.4445,0.9922 -0.9922,0.9922 -0.5482,0 -0.9922,-0.4439 -0.9922,-0.9922l0 -1.4882c0,-0.8217 -0.6668,-1.4883 -1.4884,-1.4883 -0.8221,0 -1.4883,0.6662 -1.4883,1.4883l0 0.4961c0,0.5476 -0.4445,0.9921 -0.9922,0.9921 -0.5482,0 -0.9922,-0.4439 -0.9922,-0.9921l0 -0.4961c0,-0.8217 -0.6668,-1.4883 -1.4882,-1.4883 -0.8221,0 -1.4885,0.6662 -1.4885,1.4883l0 0.4961c0,0.5476 -0.4444,0.9921 -0.9922,0.9921 -0.5482,0 -0.9922,-0.4439 -0.9922,-0.9921l0 -5.5565 14.8832 0zm0 0z"/>
   <path class="fil4" d="M-111.1634 8.0709c-0.2738,0 -0.496,0.2223 -0.496,0.4961 0,0.2738 0.2222,0.4961 0.496,0.4961 0.2739,0 0.4961,-0.2223 0.4961,-0.4961 0,-0.2738 -0.2222,-0.4961 -0.4961,-0.4961zm0 0z"/>
   <path class="fil4" d="M-108.6829 16.0086c-0.547,0 -0.9922,0.4451 -0.9922,0.9923 0,0.5471 0.4452,0.9922 0.9922,0.9922 0.5473,0 0.9922,-0.4451 0.9922,-0.9922 0,-0.5472 -0.4449,-0.9923 -0.9922,-0.9923zm0 0z"/>
   <path class="fil4" d="M-107.1944 8.0709l-1.9846 0c-0.274,0 -0.4961,0.2221 -0.4961,0.4961 0,0.274 0.2221,0.4961 0.4961,0.4961l1.9846 0c0.2738,0 0.4961,-0.2221 0.4961,-0.4961 0,-0.274 -0.2223,-0.4961 -0.4961,-0.4961zm0 0z"/>
   <path class="fil4" d="M-116.6205 -4.9271l0 13.4941c0,1.3678 1.1127,2.4807 2.4804,2.4807l2.9767 0c0.2737,0 0.4961,0.2224 0.4961,0.4961l0 0.3953c0,1.1135 -0.3548,2.9226 -0.7749,3.9507 -0.7666,1.8791 0.5571,4.0869 2.7572,4.0869 2.0355,0 3.4633,-1.9935 2.8294,-3.9026 -0.5059,-1.5228 -0.8428,-2.8095 -0.8428,-4.1399l0 -0.3904c0,-0.2737 0.2225,-0.4961 0.4961,-0.4961l2.9766 0c1.3677,0 2.4806,-1.1129 2.4806,-2.4807l0 -13.4941c0,-0.274 -0.2222,-0.496 -0.4962,-0.496l-14.8832 0c-0.274,0 -0.496,0.222 -0.496,0.496zm6.4493 7.0447c0.8225,0 1.4883,-0.666 1.4883,-1.4882l0 -0.4961c0,-0.5471 0.4451,-0.9922 0.9922,-0.9922 0.548,0 0.9924,0.4441 0.9924,0.9922l0 1.4882c0,0.8207 0.6676,1.4883 1.4882,1.4883 0.8225,0 1.4883,-0.666 1.4883,-1.4883l0 -1.9843c0,-0.2736 0.2227,-0.4961 0.4961,-0.4961l1.4883 0 0 4.9611 -13.891 0 0 -2.0698c0.1553,0.055 0.3223,0.0852 0.4961,0.0852 0.8225,0 1.4883,-0.666 1.4883,-1.4882l0 -0.4961c0,-0.5471 0.4451,-0.9922 0.9924,-0.9922 0.5478,0 0.9922,0.4441 0.9922,0.9922l0 0.4961c0,0.8206 0.6676,1.4882 1.4882,1.4882l0 0zm-5.4572 2.9768l13.891 0 0 0.9922 -13.891 -0.0001 0 -0.9921zm12.4027 4.9609l-2.9765 0c-0.8207,0 -1.4885,0.6678 -1.4885,1.4884l0 0.3905c0,1.4637 0.3573,2.8386 0.8935,4.4524 0.439,1.3222 -0.5869,2.6285 -1.9353,2.5975 -1.4704,-0.0337 -2.2865,-1.5049 -1.791,-2.7194 0.4678,-1.1448 0.8484,-3.0854 0.8484,-4.3256l0 -0.3954c0,-0.8206 -0.6676,-1.4884 -1.4883,-1.4884l-2.9767 0c-0.8205,0 -1.4883,-0.6676 -1.4883,-1.4883l0 -1.4883 13.891 0 0 1.4883c0,0.8207 -0.6676,1.4883 -1.4883,1.4883l0 0zm-12.4027 -14.4863l13.891 0 0 2.5799 -1.4883 0c-0.8207,0 -1.4883,0.6676 -1.4883,1.4883l0 1.9843c0,0.2741 -0.2221,0.4961 -0.4961,0.4961 -0.2736,0 -0.4961,-0.2224 -0.4961,-0.4961l0 -1.4882c0,-1.0963 -0.8881,-1.9844 -1.9845,-1.9844 -1.0941,0 -1.9844,0.8901 -1.9844,1.9844l0 0.4961c0,0.2738 -0.222,0.4961 -0.4961,0.4961 -0.2736,0 -0.4961,-0.2225 -0.4961,-0.4961l0 -0.4961c0,-1.0963 -0.8879,-1.9844 -1.9843,-1.9844 -1.0943,0 -1.9846,0.8901 -1.9846,1.9844l0 0.4961c0,0.2738 -0.222,0.4961 -0.4961,0.4961 -0.2734,0 -0.4961,-0.2225 -0.4961,-0.4961l0 -5.0604zm0 0z"/>
  </g>
  <g id="_758492896">
   <path class="fil6" d="M500.9921 128.8514c0,-1.5922 -1.2905,-2.8828 -2.8827,-2.8828l-7.2072 0 0 2.8827c0,1.5921 -1.2905,2.8827 -2.8827,2.8827l-17.2964 0.0001c-1.5922,0 -2.8834,-1.2906 -2.8834,-2.8827l0 -2.8828 -25.9447 0c-0.7964,0 -1.4417,0.6453 -1.4417,1.441l0 11.531c0,0.7964 0.6453,1.4417 1.4417,1.4417l56.2144 0c1.5921,0 2.8827,-1.2906 2.8827,-2.8827l0 -8.6482zm0 0z"/>
   <path class="fil6" d="M505.3159 130.2924l-4.3238 0 0 5.7655 4.3238 0c0.7964,0 1.4417,-0.6453 1.4417,-1.4411l0 -2.8827c0,-0.7964 -0.6453,-1.4417 -1.4417,-1.4417l0 0zm0 0z"/>
   <path class="fil6" d="M436.1295 128.8514c0,-0.7965 -0.6453,-1.4417 -1.4417,-1.4417l-2.8827 0c-0.7957,0 -1.441,0.6452 -1.441,1.4417l0 8.6482c0,0.7957 0.6453,1.441 1.441,1.441l2.8827 0c0.7964,0 1.4417,-0.6453 1.4417,-1.441l0 -8.6482zm0 0z"/>
   <path class="fil6" d="M436.1295 130.2924l4.3245 0 0 5.7655 -4.3245 0 0 -5.7655zm0 0z"/>
   <path class="fil2" d="M438.4659 165.6282c-0.386,1.5446 0.553,3.1097 2.0976,3.4957 0.229,0.0574 0.4639,0.0864 0.7001,0.0858l8.4694 0c1.3236,0.0006 2.4769,-0.8994 2.7976,-2.1834l6.6609 -26.644 -14.4138 0 -6.3118 25.2459zm0 0z"/>
   <path class="fil7" d="M480.8123 121.6442c0.4836,0.0013 0.9659,-0.0423 1.4417,-0.1294 4.1608,-0.6974 7.2085,-4.3 7.2072,-8.5188l0 -11.531 -20.1798 0 0 11.531c-0.002,4.2188 3.0457,7.8214 7.2072,8.5188 0.475,0.0871 0.958,0.1307 1.441,0.1294l2.8827 0zm0 0z"/>
   <path class="fil6" d="M482.254 125.9686l0 -4.4544c-0.4758,0.0877 -0.9581,0.1313 -1.4417,0.13l-2.8827 0c-0.4837,0.0013 -0.966,-0.0423 -1.441,-0.13l0 4.4544 5.7654 0zm0 0z"/>
   <path class="fil6" d="M479.3713 131.7341l5.7655 0 0 -5.7655 -5.7655 0 0 5.7655zm0 0z"/>
   <path class="fil6" d="M488.0195 131.7341c1.5921,0 2.8827,-1.2906 2.8827,-2.8827l0 -2.8828 -5.7654 0 0 5.7655 2.8827 0zm0 0z"/>
   <path class="fil6" d="M470.7231 131.7341l2.8827 0 0 -5.7655 -5.7661 0 0 2.8827c0,1.5921 1.2912,2.8827 2.8834,2.8827l0 0.0001zm0 0z"/>
   <path class="fil6" d="M479.3713 131.7341l0 -5.7655 -5.7655 0 0 5.7655 5.7655 0zm0 0z"/>
   <path class="fil3" d="M508.1987 131.7341c0,-1.5922 -1.2906,-2.8827 -2.8828,-2.8827l-2.8827 0c0,-2.3886 -1.936,-4.3245 -4.3238,-4.3245l-14.4143 0 0 -1.8739c4.2842,-1.2556 7.2223,-5.1927 7.2071,-9.657l0 -11.531c0,-0.7964 -0.6452,-1.4417 -1.4417,-1.4417l-20.1791 0c-0.7964,0 -1.4417,0.6453 -1.4417,1.4417l0 11.531c-0.0159,4.4643 2.923,8.4021 7.2072,9.657l0 1.8739 -33.1519 0c-1.5921,0 -2.8827,1.2906 -2.8827,2.8827l0 1.4417 -1.4417 0.0001c0,-1.5922 -1.2906,-2.8828 -2.8828,-2.8828l-2.8827 0c-1.5921,0 -2.8827,1.2906 -2.8827,2.8827l0 8.6482c0,1.5921 1.2906,2.8827 2.8827,2.8827l2.8827 0.0001c1.5922,0 2.8828,-1.2906 2.8828,-2.8827l1.4417 0 0 1.441c0,1.5921 1.2905,2.8827 2.8827,2.8827l1.0379 0 -5.8651 23.4546c-0.58,2.3166 0.8287,4.6649 3.1453,5.2442 0.3438,0.0857 0.6961,0.1293 1.0504,0.1293l2.0725 0 0 1.4417c0,2.3879 1.9366,4.3244 4.3245,4.3244l51.8899 0c0.7965,0 1.4417,0.6453 1.4417,1.441l0 4.3244c0,0.7958 -0.6452,1.4411 -1.4417,1.4411l-38.9173 0c-0.7964,0 -1.4417,0.6453 -1.4417,1.4417 0,0.7957 0.6453,1.441 1.4417,1.441l38.9173 0.0001c2.3886,0 4.3245,-1.9359 4.3245,-4.3244l0 -4.3238c0,-2.3886 -1.936,-4.3244 -4.3245,-4.3244l-51.8899 -0.0001c-0.7964,0 -1.4417,-0.6453 -1.4417,-1.441l0 -1.4417 3.5142 0c1.9847,0.0007 3.7147,-1.35 4.1957,-3.2747l3.8646 -15.4635 8.6482 0c0.6446,0 1.2101,-0.4269 1.3869,-1.0464l2.5845 -9.0435 27.6965 0c2.3878,0 4.3238,-1.9359 4.3238,-4.3237l2.8827 0c1.5922,0 2.8828,-1.2906 2.8828,-2.8828l0 -2.8827zm-27.3864 -1.4417l0 -2.8827 2.8828 0 0 2.8827 -2.8828 0zm-5.7655 0l0 -2.8827 2.8828 0 0 2.8827 -2.8828 0zm11.531 -2.8827l2.8827 0 0 1.4417c0,0.7957 -0.6453,1.441 -1.441,1.441l-1.4417 0 0 -2.8827zm-15.8547 -14.4137l0 -10.0899 17.2964 -0.0001 0 10.0899c0.0119,3.5287 -2.5456,6.5408 -6.0294,7.1016 -0.3887,0.0713 -0.7826,0.1069 -1.1778,0.1056l-2.8827 0c-0.4045,0.0007 -0.8083,-0.0362 -1.2061,-0.1095 -3.472,-0.5714 -6.0156,-3.5795 -6.0004,-7.0976zm7.2065 10.0892l2.8827 0 0 1.4417 -2.8827 0 0 -1.4417zm-5.7655 4.3245l0 2.8827 -1.441 0c-0.7964,0 -1.4417,-0.6453 -1.4417,-1.441l0 -1.4417 2.8827 0zm-40.359 10.0899l0 -8.6482 2.8827 0 0 8.6482 -2.8827 0zm5.7655 -2.8828l0 -2.8827 1.4417 0 0 2.8827 -1.4417 0zm13.5625 32.0592c-0.1603,0.6426 -0.7376,1.0933 -1.4001,1.0926l-8.4694 0c-0.7964,0.0007 -1.4424,-0.644 -1.4431,-1.4397 0,-0.1187 0.0145,-0.2369 0.0436,-0.3517l6.0393 -24.1539 11.4432 0 -6.2135 24.8527zm14.2217 -17.6455l-6.8403 0 1.8013 -7.2072 7.0917 0 -2.0527 7.2072zm34.1956 -11.5309c0,0.7957 -0.6452,1.441 -1.441,1.441l-56.2144 0 0 -11.531 24.5036 0.0001 0 1.4417c0,2.3878 1.9359,4.3237 4.3244,4.3237l17.2965 0c2.3885,0 4.3244,-1.9359 4.3244,-4.3237l0 -1.4417 5.7655 0c0.7957,0 1.441,0.6452 1.441,1.4417l0 8.6482zm2.8828 -2.8828l0 -2.8827 2.8827 0 0 2.8827 -2.8827 0zm0 0z"/>
   <path class="fil3" d="M513.9641 131.7341l-2.8827 0c-0.7958,0 -1.4411,0.6453 -1.4411,1.441 0,0.7964 0.6453,1.4417 1.4411,1.4417l2.8827 0c0.7964,0 1.4417,-0.6453 1.4417,-1.4417 0,-0.7957 -0.6453,-1.441 -1.4417,-1.441l0 0zm0 0z"/>
   <path class="fil3" d="M509.6403 130.2924c0.3821,0 0.749,-0.1518 1.0195,-0.4223l2.8827 -2.8827c0.5529,-0.5727 0.5371,-1.4853 -0.0356,-2.0382 -0.5589,-0.5397 -1.4444,-0.5397 -2.0025,0l-2.8828 2.8827c-0.5628,0.5629 -0.5628,1.476 0,2.0388 0.2699,0.2699 0.6368,0.4217 1.0188,0.4217l-0.0001 0zm0 0z"/>
   <path class="fil3" d="M510.6591 136.4801c-0.5727,-0.5529 -1.4846,-0.5371 -2.0382,0.0356 -0.5391,0.5589 -0.5391,1.4444 0,2.0026l2.8827 2.8827c0.5727,0.5529 1.4853,0.5377 2.0382,-0.035 0.5397,-0.5588 0.5397,-1.4443 0,-2.0032l-2.8827 -2.8827zm0 0z"/>
  </g>
  <g id="_758482720">
   <path class="fil0" d="M342.489 180.5048l38.0491 0 0 6.9181 -38.0491 -0.0001 0 -6.918zm0 0z"/>
   <path class="fil7" d="M380.5381 136.9212l0 43.5836 -38.0491 0 0 -43.5836 38.0491 0zm0 0z"/>
   <path class="fil2" d="M370.1611 151.4835l-4.3238 4.4312 1.0202 6.2573 -5.3439 -2.9536 -5.3446 2.9536 1.0208 -6.2573 -4.3238 -4.4312 5.9756 -0.9127 2.6719 -5.6939 2.672 5.6939 5.9756 0.9127zm0 0z"/>
   <path class="fil0" d="M378.6681 130.7504c-1.1985,-1.7363 -2.928,-3.1456 -5.048,-4.2062l0 -6.9181 -6.918 0 0 -10.377 -10.3771 -0.0001 0 10.3771 -6.918 0 0 6.9181c-4.2394,2.1206 -6.9181,5.6364 -6.9181,10.377l38.0492 0c0,-2.3693 -0.6695,-4.4346 -1.87,-6.1708l0 0zm0 0z"/>
   <path class="fil2" d="M356.325 109.249l10.3771 0 0 10.3771 -10.3771 0 0 -10.3771zm0 0z"/>
   <path class="fil3" d="M352.866 175.3163c0.9546,0 1.7295,-0.7749 1.7295,-1.7295 0,-0.9547 -0.7749,-1.7295 -1.7295,-1.7295 -0.9546,0 -1.7295,0.7748 -1.7295,1.7295 0,0.9546 0.7749,1.7295 1.7295,1.7295zm0 0z"/>
   <path class="fil3" d="M366.7021 107.5196l-10.3771 0c-0.9552,0 -1.7295,0.7742 -1.7295,1.7295l0 8.6475 -5.1885 0c-0.9553,0 -1.7295,0.7742 -1.7295,1.7295l0 5.8857c-4.4711,2.5774 -6.9181,6.5931 -6.9181,11.4094l0 50.5017c0,0.9552 0.7742,1.7295 1.7295,1.7295l38.0492 -0.0001c0.9547,0 1.7295,-0.7742 1.7295,-1.7295l0 -50.5016c0,-4.9839 -2.5976,-8.9226 -6.918,-11.4094l0 -5.8857c0,-0.9553 -0.7749,-1.7296 -1.7295,-1.7296l-5.1885 0.0001 0 -8.6475c0,-0.9553 -0.7742,-1.7295 -1.7295,-1.7295zm-8.6476 3.4589l6.9181 0 0 6.9181 -6.9181 0 0 -6.9181zm20.7542 67.7968l-34.5902 0 0 -40.1246 34.5902 0 0 40.1246zm-34.5902 6.9181l0 -3.4591 34.5902 0 0 3.4591 -34.5902 0zm34.4415 -50.5017l-34.2922 0c0.631,-3.5644 3.1692,-5.6952 5.4594,-6.9181l23.3727 0c2.8165,1.5005 4.9027,3.7638 5.4601,6.9181zm-6.7694 -10.3771l-20.7541 0 0 -3.459 20.7541 0 0 3.459zm0 0z"/>
   <path class="fil3" d="M355.3421 156.4977l-0.8797 5.396c-0.1067,0.6533 0.1696,1.3106 0.7108,1.6923 0.5412,0.381 1.2532,0.4202 1.8328,0.0993l4.5076 -2.4916 4.5075 2.4916c0.5837,0.3229 1.2958,0.279 1.8329,-0.0993 0.5411,-0.3817 0.8174,-1.0391 0.7107,-1.6923l-0.8803 -5.396 3.7144 -3.8062c0.4527,-0.4642 0.608,-1.1418 0.402,-1.7566 -0.2054,-0.6148 -0.7378,-1.0627 -1.3789,-1.1606l-5.0629 -0.7742 -2.2801 -4.8575c-0.2844,-0.6073 -0.8952,-0.9951 -1.5654,-0.9951 -0.6708,0 -1.2809,0.3877 -1.566,0.9951l-2.2801 4.8575 -5.0629 0.7742c-0.6412,0.0979 -1.1735,0.5459 -1.3789,1.1606 -0.2054,0.6148 -0.0507,1.2924 0.402,1.7566l3.7145 3.8062zm3.7603 -4.2177c0.5702,-0.0871 1.0593,-0.4526 1.3045,-0.9748l1.1066 -2.3572 1.1059 2.3572c0.2453,0.5222 0.7344,0.8877 1.3046,0.9748l2.6483 0.4047 -1.9727 2.022c-0.3837,0.3925 -0.5574,0.9445 -0.4695,1.4863l0.4472 2.7422 -2.2267 -1.2309c-0.2608,-0.1439 -0.5486,-0.2162 -0.8371,-0.2162 -0.2878,0 -0.5763,0.0723 -0.8364,0.2162l-2.2274 1.2309 0.4473 -2.7422c0.0885,-0.5418 -0.0858,-1.0938 -0.4689,-1.4863l-1.9734 -2.022 2.6477 -0.4047zm0 0z"/>
   <path class="fil3" d="M370.1611 171.8573l-10.377 0c-0.9553,0 -1.7296,0.7742 -1.7296,1.7295 0,0.9553 0.7742,1.7295 1.7296,1.7295l10.377 0c0.9546,0 1.7295,-0.7742 1.7295,-1.7295 0,-0.9553 -0.7749,-1.7295 -1.7295,-1.7295zm0 0z"/>
   <path class="fil3" d="M389.1857 112.708c0,-0.9552 -0.7749,-1.7295 -1.7295,-1.7295l-6.9181 0c-0.9552,0 -1.7295,0.7742 -1.7295,1.7295 0,0.9554 0.7742,1.7296 1.7295,1.7296l6.9181 0c0.9546,0 1.7295,-0.7742 1.7295,-1.7296zm0 0z"/>
   <path class="fil3" d="M401.2923 114.4376c0.9546,0 1.7295,-0.7742 1.7295,-1.7296 0,-0.9553 -0.7749,-1.7295 -1.7295,-1.7295l-6.9181 0c-0.9552,0 -1.7295,0.7742 -1.7295,1.7295 0,0.9554 0.7742,1.7296 1.7295,1.7296l6.9181 0zm0 0z"/>
   <path class="fil3" d="M406.4571 102.0472c-0.1574,-0.9424 -1.0499,-1.5788 -1.9903,-1.4221l-20.7541 3.4591c-0.9424,0.1574 -1.5789,1.0484 -1.4221,1.9903 0.1574,0.9438 1.0499,1.5788 1.9903,1.4221l20.7541 -3.4591c0.9424,-0.1574 1.5789,-1.0485 1.4221,-1.9903zm0 0z"/>
   <path class="fil3" d="M383.7127 121.3319l20.7542 3.4591c0.9417,0.1574 1.8328,-0.479 1.9903,-1.4215 0.1567,-0.9424 -0.4797,-1.8335 -1.4221,-1.9903l-20.7542 -3.459c-0.9424,-0.1567 -1.8328,0.4797 -1.9903,1.4214 -0.1567,0.9425 0.4797,1.8336 1.4221,1.9903zm0 0z"/>
  </g>
  <g id="_758489120">
   <path class="fil2" d="M452.7678 42.1981l-7.5071 6.055 -4.9616 9.9392 39.4634 0 0 -15.9942c-2.6124,0 -25.9187,0 -26.9947,0zm0 0z"/>
   <path class="fil7" d="M459.9286 12.4178c-1.7761,1.7766 -16.4016,16.4021 -18.0952,18.0953l-2.5134 15.7978 4.9821 4.3529c0.7694,-0.7693 25.7871,-25.7871 26.9354,-26.9358l-11.3089 -11.3102zm0 0z"/>
   <path class="fil2" d="M425.8392 4.269l0 39.4634 15.9942 0c0,0 0,-38.6089 0,-39.4634l-15.9942 0zm0 0z"/>
   <path class="fil0" d="M444.1183 50.1952c0,5.6792 -4.6037,10.282 -10.282,10.282 -5.6792,0 -10.282,-4.6028 -10.282,-10.282 0,-5.6631 4.5885,-10.282 10.282,-10.282 5.6845,0 10.282,4.6099 10.282,10.282zm0 0z"/>
   <path class="fil2" d="M433.8363 44.483c3.1497,0 5.7122,2.5615 5.7122,5.7122 0,3.1507 -2.5625,5.7122 -5.7122,5.7122 -3.1498,0 -5.7122,-2.5615 -5.7122,-5.7122 0,-3.1507 2.5624,-5.7122 5.7122,-5.7122zm0 0z"/>
   <path class="fil3" d="M472.2224 50.1952c0.6306,0 1.1425,-0.5119 1.1425,-1.1424 0,-0.6306 -0.5119,-1.1425 -1.1425,-1.1425 -0.6306,0 -1.1424,0.5119 -1.1424,1.1425 0,0.6305 0.5118,1.1424 1.1424,1.1424zm0 0z"/>
   <path class="fil3" d="M433.8363 43.3406c-3.7799,0 -6.8547,3.0748 -6.8547,6.8546 0,3.7799 3.0748,6.8547 6.8547,6.8547 3.7799,0 6.8547,-3.0748 6.8547,-6.8547 0,-3.7798 -3.0748,-6.8546 -6.8547,-6.8546zm0 11.4244c-2.5196,0 -4.5698,-2.0502 -4.5698,-4.5698 0,-2.5196 2.0502,-4.5698 4.5698,-4.5698 2.5196,0 4.5698,2.0502 4.5698,4.5698 0,2.5196 -2.0502,4.5698 -4.5698,4.5698zm0 0z"/>
   <path class="fil3" d="M479.7625 41.0557l-24.2367 0 16.5194 -16.5195c0.4463,-0.4463 0.4463,-1.1697 0,-1.616l-11.3088 -11.3102c-0.2142,-0.2142 -0.5048,-0.3346 -0.8078,-0.3346 -0.3029,0 -0.5935,0.1205 -0.8077,0.3346l-16.1451 16.1451 0 -23.4861c0,-0.6311 -0.5114,-1.1425 -1.1424,-1.1425l-15.9942 0c-0.6311,0 -1.1425,0.5114 -1.1425,1.1425l0 39.0733c-1.4754,1.9663 -2.2849,4.3833 -2.2849,6.8529 0,6.2996 5.1249,11.4245 11.4245,11.4245 2.4696,0 4.8866,-0.8095 6.8529,-2.2849l39.0733 0c0.6311,0 1.1425,-0.5114 1.1425,-1.1425l0 -15.9942c0,-0.631 -0.5114,-1.1425 -1.1425,-1.1425l0 0.0001zm-27.9122 -18.9436l9.6934 9.6942 -8.0779 8.0779 -9.6947 -9.6934 8.0792 -8.0787zm-6.7565 26.1441c-0.3065,-1.7766 -1.0322,-3.4671 -2.118,-4.9139l0 -10.7153 8.8741 8.8731 -6.7561 6.7561zm-18.1122 -18.625l0 -12.1099 13.7093 0 0 12.1099 -13.7093 0zm0 2.2849l13.7093 0 0 9.1369c-1.9564,-1.4709 -4.3462,-2.2822 -6.8546,-2.2822 -2.5085,0 -4.8983,0.8113 -6.8547,2.2822l0 -9.1369zm18.2166 19.4671l6.9172 -6.9172 0 12.5839 -9.1409 0c1.2353,-1.6458 2.0109,-3.6041 2.2238,-5.6667l-0.0001 0zm9.2021 -8.0426l12.1099 0 0 13.7093 -12.1099 0 0 -13.7093zm5.5283 -29.3069l9.6934 9.6943 -6.4624 6.4628 -9.6934 -9.6947 6.4624 -6.4624zm-19.2377 -8.6223l0 9.825 -13.7093 0 0 -9.825 13.7093 0zm-15.9942 44.7838c0,-5.0776 4.1151,-9.1395 9.1396,-9.1395 5.0892,0 9.1395,4.132 9.1395,9.1395 0,4.983 -4.0275,9.1396 -9.1395,9.1396 -5.0397,0 -9.1396,-4.0999 -9.1396,-9.1396zm53.9234 6.8547l-5.2552 0 0 -3.4273c0,-0.631 -0.5114,-1.1425 -1.1425,-1.1425 -0.631,0 -1.1424,0.5114 -1.1424,1.1425l0 3.4273 -2.2849 0 0 -13.7093 9.825 0 0 13.7093zm0 0z"/>
  </g>
 </g>
</svg>
