<?xml version="1.0" encoding="UTF-8"?>
<!DOCTYPE svg PUBLIC "-//W3C//DTD SVG 1.1//EN" "http://www.w3.org/Graphics/SVG/1.1/DTD/svg11.dtd">
<!-- Creator: CorelDRAW 2017 -->
<svg xmlns="http://www.w3.org/2000/svg" xml:space="preserve" width="210mm" height="297mm" version="1.1" style="shape-rendering:geometricPrecision; text-rendering:geometricPrecision; image-rendering:optimizeQuality; fill-rule:evenodd; clip-rule:evenodd"
viewBox="0 0 210 297"
 xmlns:xlink="http://www.w3.org/1999/xlink">
 <defs>
  <style type="text/css">
   <![CDATA[
    .fil6 {fill:#FEFEFE}
    .fil2 {fill:#FEFEFE}
    .fil7 {fill:#00AFEF}
    .fil1 {fill:#00AFEF}
    .fil4 {fill:#19323C}
    .fil3 {fill:#19323C}
    .fil5 {fill:#30BCED}
    .fil0 {fill:white}
   ]]>
  </style>
 </defs>
 <g id="Camada_x0020_1">
  <metadata id="CorelCorpID_0Corel-Layer"/>
  <g id="_758484288">
   <path class="fil0" d="M-124.0398 32.4678l0 3.5719c0,0.5482 0.444,0.9922 0.9922,0.9922l15.875 0c0.5482,0 0.9922,-0.444 0.9922,-0.9922 0,-0.6986 0,-2.7973 0,-3.5719l-17.8594 0zm0 0z"/>
   <path class="fil1" d="M-106.1804 31.7733l0 2.282 -1.9844 0c-0.5482,0 -0.9922,0.444 -0.9922,0.9922l0 1.9844c0,0.5476 -0.4445,0.9922 -0.9922,0.9922 -0.5482,0 -0.9922,-0.444 -0.9922,-0.9922l0 -1.4883c0,-0.8215 -0.6668,-1.4883 -1.4882,-1.4883 -0.8221,0 -1.4883,0.6663 -1.4883,1.4883l0 0.4961c0,0.5476 -0.4446,0.9922 -0.9922,0.9922 -0.5482,0 -0.9922,-0.444 -0.9922,-0.9922l0 -0.4961c0,-0.8215 -0.6668,-1.4883 -1.4883,-1.4883 -0.822,0 -1.4882,0.6663 -1.4882,1.4883l0 0.4961c0,0.5476 -0.4446,0.9922 -0.9922,0.9922 -0.5483,0 -0.9922,-0.444 -0.9922,-0.9922l0 -0.9922c0,-0.5482 -0.444,-0.9922 -0.9922,-0.9922l-1.9844 0 0 -2.282c0,-0.5483 0.444,-0.9922 0.9922,-0.9922l15.875 0c0.5482,0 0.9922,0.4439 0.9922,0.9922l0 0zm0 0z"/>
   <path class="fil2" d="M-113.1257 45.9616l0 7.2429c0,1.0959 -0.8885,1.9844 -1.9844,1.9844 -1.0953,0 -1.9844,-0.8889 -1.9844,-1.9844l0 -7.2429c0,-0.5483 0.444,-0.9922 0.9922,-0.9922l1.9844 0c0.5482,0 0.9922,0.4439 0.9922,0.9922zm0 0z"/>
   <path class="fil3" d="M-115.6062 48.9381c0,0.2738 0.2223,0.4961 0.4961,0.4961 0.2738,0 0.4961,-0.2223 0.4961,-0.4961 0,-0.2738 -0.2223,-0.4961 -0.4961,-0.4961 -0.2738,0 -0.4961,0.2223 -0.4961,0.4961zm0 0z"/>
   <path class="fil4" d="M-124.5359 31.7733l0 4.2664c0,0.8207 0.6676,1.4882 1.4883,1.4882l11.4954 0c0.2049,0.5775 0.7564,0.9922 1.403,0.9922 0.6616,0 1.2046,-0.4273 1.4038,-0.9922l1.5728 0c0.8207,0 1.4883,-0.6675 1.4883,-1.4882l0 -1.4883 1.4883 0c0.2736,0 0.4961,0.2225 0.4961,0.4961l0 4.1205c0,0.2436 -0.1744,0.4494 -0.4145,0.4895l-10.2484 1.7076c-0.7205,0.1202 -1.2434,0.7378 -1.2434,1.4682l0 1.64 -0.4961 0c-0.8207,0 -1.4883,0.6676 -1.4883,1.4882l0 7.243c0,1.3703 1.1101,2.4805 2.4805,2.4805 1.3678,0 2.4805,-1.1127 2.4805,-2.4805l0 -7.243c0,-0.8206 -0.6676,-1.4882 -1.4883,-1.4882l-0.4961 0 0 -1.64c0,-0.2436 0.1744,-0.4494 0.4145,-0.4895l10.2484 -1.7077c0.7205,-0.1201 1.2433,-0.7377 1.2433,-1.4681l0 -4.1205c0,-0.8207 -0.6676,-1.4883 -1.4882,-1.4883l-1.4883 0 0 -1.7859c0,-0.8207 -0.6676,-1.4883 -1.4883,-1.4883l-15.875 0c-0.8207,0 -1.4883,0.6676 -1.4883,1.4883zm10.9141 14.1883l0 7.2429c0,0.8207 -0.6676,1.4883 -1.4883,1.4883 -0.822,0 -1.4883,-0.6662 -1.4883,-1.4883l0 -7.2429c0,-0.2737 0.2225,-0.4961 0.4961,-0.4961l1.9844 0c0.2736,0 0.4961,0.2224 0.4961,0.4961zm-9.9219 -9.9219l0 -1.4883 1.4883 0c0.2736,0 0.4961,0.2225 0.4961,0.4961l0 0.9922c0,0.174 0.0302,0.3409 0.0853,0.4961l-1.5736 0c-0.2736,0 -0.4961,-0.2225 -0.4961,-0.4961l0 0zm7.0306 0.4961l-2.1541 0c0.0554,-0.1574 0.0845,-0.3244 0.0845,-0.4961l0 -0.4961c0,-0.5471 0.4451,-0.9922 0.9921,-0.9922 0.5481,0 0.9922,0.4441 0.9922,0.9922l0 0.4961c0,0.174 0.0303,0.3408 0.0853,0.4961zm4.8757 0l-2.0689 0c0.0554,-0.1574 0.0845,-0.3244 0.0845,-0.4961l0 -0.4961c0,-0.5471 0.4451,-0.9922 0.9922,-0.9922 0.548,0 0.9922,0.4441 0.9922,0.9922l0 0.9922zm4.9609 -0.4961c0,0.2736 -0.2225,0.4961 -0.4961,0.4961l-1.4883 0 0 -1.4883c0,-0.2736 0.2225,-0.4961 0.4961,-0.4961l1.4883 0 0 1.4883zm0 -4.2664l0 1.7859 -1.4883 0c-0.8207,0 -1.4883,0.6676 -1.4883,1.4883l0 1.9844c0,0.2738 -0.222,0.496 -0.496,0.496 -0.2737,0 -0.4961,-0.2224 -0.4961,-0.496l0 -1.4883c0,-1.0963 -0.888,-1.9844 -1.9844,-1.9844 -1.0941,0 -1.9844,0.8903 -1.9844,1.9844l0 0.4961c0,0.2738 -0.2221,0.4961 -0.4961,0.4961 -0.2736,0 -0.4961,-0.2225 -0.4961,-0.4961l0 -0.4961c0,-1.0963 -0.8879,-1.9844 -1.9844,-1.9844 -1.0941,0 -1.9843,0.8903 -1.9843,1.9844l0 0.4961c0,0.2738 -0.2221,0.4961 -0.4961,0.4961 -0.2737,0 -0.4961,-0.2225 -0.4961,-0.4961l0 -0.9922c0,-0.8207 -0.6676,-1.4883 -1.4883,-1.4883l-1.4883 0 0 -1.7859c0,-0.2737 0.2225,-0.4961 0.4961,-0.4961l15.875 0c0.2736,0 0.4961,0.2224 0.4961,0.4961l0 0zm0 0z"/>
   <path class="fil3" d="M-115.1101 50.4264c-0.274,0 -0.4961,0.2221 -0.4961,0.4961l0 2.282c0,0.274 0.2221,0.4961 0.4961,0.4961 0.274,0 0.4961,-0.222 0.4961,-0.4961l0 -2.282c0,-0.274 -0.2221,-0.4961 -0.4961,-0.4961zm0 0z"/>
  </g>
  <g id="_758491808">
   <path class="fil2" d="M-124.0229 80.0822l0 12.8488c0,0.5482 0.444,0.9922 0.9922,0.9922l13.8906 0c0.5482,0 0.9922,-0.444 0.9922,-0.9922 0,-2.8159 0,-9.987 0,-12.8488l-15.875 0zm0 0z"/>
   <path class="fil5" d="M-108.1479 81.4216l-0.9922 0c-0.5482,0 -0.9922,0.444 -0.9922,0.9922l0 1.9844c0,0.5476 -0.4445,0.9922 -0.9922,0.9922 -0.5482,0 -0.9922,-0.444 -0.9922,-0.9922l0 -1.4883c0,-0.4108 -0.1666,-0.7829 -0.436,-1.0522 -0.2694,-0.2694 -0.6414,-0.4361 -1.0522,-0.4361 -0.8221,0 -1.4883,0.6663 -1.4883,1.4883l0 3.4727c0,0.5476 -0.4446,0.9922 -0.9922,0.9922 -0.5482,0 -0.9922,-0.444 -0.9922,-0.9922l0 -3.4727c0,-0.4108 -0.1667,-0.7829 -0.436,-1.0522 -0.2694,-0.2694 -0.6415,-0.4361 -1.0523,-0.4361 -0.822,0 -1.4882,0.6663 -1.4882,1.4883l0 0.4961c0,0.5476 -0.4446,0.9922 -0.9922,0.9922 -0.5483,0 -0.9922,-0.444 -0.9922,-0.9922l0 -0.9922c0,-0.5482 -0.444,-0.9922 -0.9922,-0.9922l-0.9922 0c0,-0.4802 0,-3.4854 0,-3.9687l15.875 0 0 3.9687zm0 0z"/>
   <path class="fil2" d="M-113.1088 69.5154c0.5482,0 0.9922,0.4439 0.9922,0.9922 0,0.5476 -0.4446,0.9922 -0.9922,0.9922l-5.9532 0c-0.5482,0 -0.9921,-0.444 -0.9921,-0.9922 0,-0.5477 0.4445,-0.9922 0.9921,-0.9922l5.9532 0zm0 0z"/>
   <path class="fil4" d="M-121.0463 79.9333c0.2738,0 0.4961,-0.2222 0.4961,-0.4961 0,-0.2738 -0.2223,-0.496 -0.4961,-0.496 -0.2738,0 -0.4961,0.2222 -0.4961,0.496 0,0.2739 0.2223,0.4961 0.4961,0.4961zm0 0z"/>
   <path class="fil4" d="M-105.6675 76.4607c0,-3.4165 -2.6705,-6.2206 -6.0337,-6.4355 -0.2009,-0.5846 -0.7557,-1.0059 -1.4076,-1.0059l-5.9532 0c-0.6656,0 -1.2123,0.4325 -1.4082,1.0059 -3.363,0.2153 -6.0331,3.0192 -6.0331,6.4355l0 1.9844c0,0.8207 0.6675,1.4882 1.4882,1.4882l0.4961 0 0 12.9977c0,0.8207 0.6676,1.4883 1.4883,1.4883l13.8906 0c0.8207,0 1.4883,-0.6676 1.4883,-1.4883l0 -12.9977 0.4961 0c0.8207,0 1.4882,-0.6675 1.4882,-1.4882l0 -1.9844zm-13.3945 -6.4492l5.9532 0c0.2736,0 0.4961,0.2224 0.4961,0.4961 0,0.2738 -0.2223,0.4961 -0.4961,0.4961l-5.9532 0c-0.2736,0 -0.496,-0.2225 -0.496,-0.4961 0,-0.2739 0.2222,-0.4961 0.496,-0.4961l0 0zm10.418 10.914l-0.4961 0c-0.8207,0 -1.4883,0.6676 -1.4883,1.4883l0 1.9844c0,0.2738 -0.2222,0.4961 -0.4961,0.4961 -0.2736,0 -0.4961,-0.2225 -0.4961,-0.4961l0 -1.4883c0,-1.0962 -0.8879,-1.9844 -1.9843,-1.9844 -1.0941,0 -1.9844,0.8903 -1.9844,1.9844l0 3.4727c0,0.2738 -0.2223,0.4961 -0.4961,0.4961 -0.2736,0 -0.4961,-0.2225 -0.4961,-0.4961l0 -3.4727c0,-1.0962 -0.8879,-1.9844 -1.9844,-1.9844 -1.0941,0 -1.9843,0.8903 -1.9843,1.9844l0 0.4961c0,0.2738 -0.2223,0.4961 -0.4961,0.4961 -0.2737,0 -0.4961,-0.2225 -0.4961,-0.4961l0 -0.9922c0,-0.8207 -0.6676,-1.4883 -1.4883,-1.4883l-0.4961 0 0 -2.9765 14.8828 0 0 2.9765zm-0.4961 12.5016l-13.8906 0c-0.2736,0 -0.4961,-0.2225 -0.4961,-0.4961l0 -11.0133 0.4961 0c0.2736,0 0.4961,0.2225 0.4961,0.4961l0 0.9922c0,0.8207 0.6676,1.4883 1.4883,1.4883 0.8222,0 1.4883,-0.6661 1.4883,-1.4883l0 -0.4961c0,-0.547 0.4451,-0.9922 0.9921,-0.9922 0.5481,0 0.9922,0.4442 0.9922,0.9922l0 3.4727c0,0.8207 0.6676,1.4882 1.4883,1.4882 0.8222,0 1.4883,-0.666 1.4883,-1.4882l0 -3.4727c0,-0.547 0.4451,-0.9922 0.9922,-0.9922 0.548,0 0.9922,0.4442 0.9922,0.9922l0 1.4883c0,0.8207 0.6676,1.4883 1.4882,1.4883 0.8223,0 1.4883,-0.6661 1.4883,-1.4883l0 -1.9844c0,-0.2736 0.2225,-0.4961 0.4961,-0.4961l0.4961 0 0 11.0133c0,0.2736 -0.2225,0.4961 -0.4961,0.4961l0 0zm2.4805 -14.982c0,0.2736 -0.2225,0.4961 -0.4961,0.4961l-0.4961 0 0 -1.4883c0,-0.274 -0.2221,-0.4961 -0.4961,-0.4961l-15.875 0c-0.274,0 -0.4961,0.2221 -0.4961,0.4961l0 1.4883 -0.4961 0c-0.2736,0 -0.4961,-0.2225 -0.4961,-0.4961l0 -1.9844c0,-2.8725 2.2311,-5.2338 5.0515,-5.4419 0.2089,0.5695 0.7565,0.977 1.3977,0.977l5.9532 0.0001c0.6552,0 1.1947,-0.4194 1.3983,-0.9771 2.82,0.2085 5.0509,2.5694 5.0509,5.4419l0 1.9844zm0 0z"/>
   <path class="fil4" d="M-119.062 79.9333l7.9375 0c0.274,0 0.4961,-0.222 0.4961,-0.4961 0,-0.274 -0.222,-0.496 -0.4961,-0.496l-7.9375 0c-0.274,0 -0.496,0.222 -0.496,0.496 0,0.2741 0.222,0.4961 0.496,0.4961zm0 0z"/>
  </g>
  <g id="_758490848">
   <path class="fil2" d="M-101.2413 6.5826l0 1.9844c0,1.0959 -0.8885,1.9846 -1.9844,1.9846l-2.9765 0c-0.5483,0 -0.9922,0.4439 -0.9922,0.9922l0 0.3904c0,1.4759 0.4027,2.8958 0.8681,4.2962 0.6048,1.8222 -1.0412,3.6818 -3.0248,3.1636 -1.4398,-0.3756 -2.1804,-1.972 -1.6316,-3.3168 0.4468,-1.094 0.8115,-2.9564 0.8115,-4.1381l0 -0.3953c0,-0.5483 -0.4439,-0.9922 -0.9921,-0.9922l-2.9768 0c-1.0959,0 -1.9844,-0.8887 -1.9844,-1.9846l0 -1.9843 14.8832 -0.0001zm0 0z"/>
   <path class="fil2" d="M-116.1245 4.5983l14.8832 0 0 1.9843 -14.8832 0 0 -1.9843zm0 0z"/>
   <path class="fil0" d="M-116.1245 -2.3474l14.8832 0 0 6.9457 -14.8832 0 0 -6.9457zm0 0z"/>
   <path class="fil5" d="M-101.2413 -4.9271l0 3.5721 -1.9844 0c-0.5482,0 -0.9922,0.444 -0.9922,0.9922l0 1.9843c0,0.5477 -0.4445,0.9922 -0.9922,0.9922 -0.5482,0 -0.9922,-0.4439 -0.9922,-0.9922l0 -1.4882c0,-0.8217 -0.6668,-1.4883 -1.4884,-1.4883 -0.8221,0 -1.4883,0.6662 -1.4883,1.4883l0 0.4961c0,0.5476 -0.4445,0.9921 -0.9922,0.9921 -0.5482,0 -0.9922,-0.4439 -0.9922,-0.9921l0 -0.4961c0,-0.8217 -0.6668,-1.4883 -1.4882,-1.4883 -0.8221,0 -1.4885,0.6662 -1.4885,1.4883l0 0.4961c0,0.5476 -0.4444,0.9921 -0.9922,0.9921 -0.5482,0 -0.9922,-0.4439 -0.9922,-0.9921l0 -5.5565 14.8832 0zm0 0z"/>
   <path class="fil4" d="M-111.1634 8.0709c-0.2738,0 -0.496,0.2223 -0.496,0.4961 0,0.2738 0.2222,0.4961 0.496,0.4961 0.2739,0 0.4961,-0.2223 0.4961,-0.4961 0,-0.2738 -0.2222,-0.4961 -0.4961,-0.4961zm0 0z"/>
   <path class="fil4" d="M-108.6829 16.0086c-0.547,0 -0.9922,0.4451 -0.9922,0.9923 0,0.5471 0.4452,0.9922 0.9922,0.9922 0.5473,0 0.9922,-0.4451 0.9922,-0.9922 0,-0.5472 -0.4449,-0.9923 -0.9922,-0.9923zm0 0z"/>
   <path class="fil4" d="M-107.1944 8.0709l-1.9846 0c-0.274,0 -0.4961,0.2221 -0.4961,0.4961 0,0.274 0.2221,0.4961 0.4961,0.4961l1.9846 0c0.2738,0 0.4961,-0.2221 0.4961,-0.4961 0,-0.274 -0.2223,-0.4961 -0.4961,-0.4961zm0 0z"/>
   <path class="fil4" d="M-116.6205 -4.9271l0 13.4941c0,1.3678 1.1127,2.4807 2.4804,2.4807l2.9767 0c0.2737,0 0.4961,0.2224 0.4961,0.4961l0 0.3953c0,1.1135 -0.3548,2.9226 -0.7749,3.9507 -0.7666,1.8791 0.5571,4.0869 2.7572,4.0869 2.0355,0 3.4633,-1.9935 2.8294,-3.9026 -0.5059,-1.5228 -0.8428,-2.8095 -0.8428,-4.1399l0 -0.3904c0,-0.2737 0.2225,-0.4961 0.4961,-0.4961l2.9766 0c1.3677,0 2.4806,-1.1129 2.4806,-2.4807l0 -13.4941c0,-0.274 -0.2222,-0.496 -0.4962,-0.496l-14.8832 0c-0.274,0 -0.496,0.222 -0.496,0.496zm6.4493 7.0447c0.8225,0 1.4883,-0.666 1.4883,-1.4882l0 -0.4961c0,-0.5471 0.4451,-0.9922 0.9922,-0.9922 0.548,0 0.9924,0.4441 0.9924,0.9922l0 1.4882c0,0.8207 0.6676,1.4883 1.4882,1.4883 0.8225,0 1.4883,-0.666 1.4883,-1.4883l0 -1.9843c0,-0.2736 0.2227,-0.4961 0.4961,-0.4961l1.4883 0 0 4.9611 -13.891 0 0 -2.0698c0.1553,0.055 0.3223,0.0852 0.4961,0.0852 0.8225,0 1.4883,-0.666 1.4883,-1.4882l0 -0.4961c0,-0.5471 0.4451,-0.9922 0.9924,-0.9922 0.5478,0 0.9922,0.4441 0.9922,0.9922l0 0.4961c0,0.8206 0.6676,1.4882 1.4882,1.4882l0 0zm-5.4572 2.9768l13.891 0 0 0.9922 -13.891 -0.0001 0 -0.9921zm12.4027 4.9609l-2.9765 0c-0.8207,0 -1.4885,0.6678 -1.4885,1.4884l0 0.3905c0,1.4637 0.3573,2.8386 0.8935,4.4524 0.439,1.3222 -0.5869,2.6285 -1.9353,2.5975 -1.4704,-0.0337 -2.2865,-1.5049 -1.791,-2.7194 0.4678,-1.1448 0.8484,-3.0854 0.8484,-4.3256l0 -0.3954c0,-0.8206 -0.6676,-1.4884 -1.4883,-1.4884l-2.9767 0c-0.8205,0 -1.4883,-0.6676 -1.4883,-1.4883l0 -1.4883 13.891 0 0 1.4883c0,0.8207 -0.6676,1.4883 -1.4883,1.4883l0 0zm-12.4027 -14.4863l13.891 0 0 2.5799 -1.4883 0c-0.8207,0 -1.4883,0.6676 -1.4883,1.4883l0 1.9843c0,0.2741 -0.2221,0.4961 -0.4961,0.4961 -0.2736,0 -0.4961,-0.2224 -0.4961,-0.4961l0 -1.4882c0,-1.0963 -0.8881,-1.9844 -1.9845,-1.9844 -1.0941,0 -1.9844,0.8901 -1.9844,1.9844l0 0.4961c0,0.2738 -0.222,0.4961 -0.4961,0.4961 -0.2736,0 -0.4961,-0.2225 -0.4961,-0.4961l0 -0.4961c0,-1.0963 -0.8879,-1.9844 -1.9843,-1.9844 -1.0943,0 -1.9846,0.8901 -1.9846,1.9844l0 0.4961c0,0.2738 -0.222,0.4961 -0.4961,0.4961 -0.2734,0 -0.4961,-0.2225 -0.4961,-0.4961l0 -5.0604zm0 0z"/>
  </g>
  <g id="_758493824">
   <path class="fil6" d="M500.9921 128.8514c0,-1.5922 -1.2905,-2.8828 -2.8827,-2.8828l-7.2072 0 0 2.8827c0,1.5921 -1.2905,2.8827 -2.8827,2.8827l-17.2964 0.0001c-1.5922,0 -2.8834,-1.2906 -2.8834,-2.8827l0 -2.8828 -25.9447 0c-0.7964,0 -1.4417,0.6453 -1.4417,1.441l0 11.531c0,0.7964 0.6453,1.4417 1.4417,1.4417l56.2144 0c1.5921,0 2.8827,-1.2906 2.8827,-2.8827l0 -8.6482zm0 0z"/>
   <path class="fil6" d="M505.3159 130.2924l-4.3238 0 0 5.7655 4.3238 0c0.7964,0 1.4417,-0.6453 1.4417,-1.4411l0 -2.8827c0,-0.7964 -0.6453,-1.4417 -1.4417,-1.4417l0 0zm0 0z"/>
   <path class="fil6" d="M436.1295 128.8514c0,-0.7965 -0.6453,-1.4417 -1.4417,-1.4417l-2.8827 0c-0.7957,0 -1.441,0.6452 -1.441,1.4417l0 8.6482c0,0.7957 0.6453,1.441 1.441,1.441l2.8827 0c0.7964,0 1.4417,-0.6453 1.4417,-1.441l0 -8.6482zm0 0z"/>
   <path class="fil6" d="M436.1295 130.2924l4.3245 0 0 5.7655 -4.3245 0 0 -5.7655zm0 0z"/>
   <path class="fil2" d="M438.4659 165.6282c-0.386,1.5446 0.553,3.1097 2.0976,3.4957 0.229,0.0574 0.4639,0.0864 0.7001,0.0858l8.4694 0c1.3236,0.0006 2.4769,-0.8994 2.7976,-2.1834l6.6609 -26.644 -14.4138 0 -6.3118 25.2459zm0 0z"/>
   <path class="fil7" d="M480.8123 121.6442c0.4836,0.0013 0.9659,-0.0423 1.4417,-0.1294 4.1608,-0.6974 7.2085,-4.3 7.2072,-8.5188l0 -11.531 -20.1798 0 0 11.531c-0.002,4.2188 3.0457,7.8214 7.2072,8.5188 0.475,0.0871 0.958,0.1307 1.441,0.1294l2.8827 0zm0 0z"/>
   <path class="fil6" d="M482.254 125.9686l0 -4.4544c-0.4758,0.0877 -0.9581,0.1313 -1.4417,0.13l-2.8827 0c-0.4837,0.0013 -0.966,-0.0423 -1.441,-0.13l0 4.4544 5.7654 0zm0 0z"/>
   <path class="fil6" d="M479.3713 131.7341l5.7655 0 0 -5.7655 -5.7655 0 0 5.7655zm0 0z"/>
   <path class="fil6" d="M488.0195 131.7341c1.5921,0 2.8827,-1.2906 2.8827,-2.8827l0 -2.8828 -5.7654 0 0 5.7655 2.8827 0zm0 0z"/>
   <path class="fil6" d="M470.7231 131.7341l2.8827 0 0 -5.7655 -5.7661 0 0 2.8827c0,1.5921 1.2912,2.8827 2.8834,2.8827l0 0.0001zm0 0z"/>
   <path class="fil6" d="M479.3713 131.7341l0 -5.7655 -5.7655 0 0 5.7655 5.7655 0zm0 0z"/>
   <path class="fil3" d="M508.1987 131.7341c0,-1.5922 -1.2906,-2.8827 -2.8828,-2.8827l-2.8827 0c0,-2.3886 -1.936,-4.3245 -4.3238,-4.3245l-14.4143 0 0 -1.8739c4.2842,-1.2556 7.2223,-5.1927 7.2071,-9.657l0 -11.531c0,-0.7964 -0.6452,-1.4417 -1.4417,-1.4417l-20.1791 0c-0.7964,0 -1.4417,0.6453 -1.4417,1.4417l0 11.531c-0.0159,4.4643 2.923,8.4021 7.2072,9.657l0 1.8739 -33.1519 0c-1.5921,0 -2.8827,1.2906 -2.8827,2.8827l0 1.4417 -1.4417 0.0001c0,-1.5922 -1.2906,-2.8828 -2.8828,-2.8828l-2.8827 0c-1.5921,0 -2.8827,1.2906 -2.8827,2.8827l0 8.6482c0,1.5921 1.2906,2.8827 2.8827,2.8827l2.8827 0.0001c1.5922,0 2.8828,-1.2906 2.8828,-2.8827l1.4417 0 0 1.441c0,1.5921 1.2905,2.8827 2.8827,2.8827l1.0379 0 -5.8651 23.4546c-0.58,2.3166 0.8287,4.6649 3.1453,5.2442 0.3438,0.0857 0.6961,0.1293 1.0504,0.1293l2.0725 0 0 1.4417c0,2.3879 1.9366,4.3244 4.3245,4.3244l51.8899 0c0.7965,0 1.4417,0.6453 1.4417,1.441l0 4.3244c0,0.7958 -0.6452,1.4411 -1.4417,1.4411l-38.9173 0c-0.7964,0 -1.4417,0.6453 -1.4417,1.4417 0,0.7957 0.6453,1.441 1.4417,1.441l38.9173 0.0001c2.3886,0 4.3245,-1.9359 4.3245,-4.3244l0 -4.3238c0,-2.3886 -1.936,-4.3244 -4.3245,-4.3244l-51.8899 -0.0001c-0.7964,0 -1.4417,-0.6453 -1.4417,-1.441l0 -1.4417 3.5142 0c1.9847,0.0007 3.7147,-1.35 4.1957,-3.2747l3.8646 -15.4635 8.6482 0c0.6446,0 1.2101,-0.4269 1.3869,-1.0464l2.5845 -9.0435 27.6965 0c2.3878,0 4.3238,-1.9359 4.3238,-4.3237l2.8827 0c1.5922,0 2.8828,-1.2906 2.8828,-2.8828l0 -2.8827zm-27.3864 -1.4417l0 -2.8827 2.8828 0 0 2.8827 -2.8828 0zm-5.7655 0l0 -2.8827 2.8828 0 0 2.8827 -2.8828 0zm11.531 -2.8827l2.8827 0 0 1.4417c0,0.7957 -0.6453,1.441 -1.441,1.441l-1.4417 0 0 -2.8827zm-15.8547 -14.4137l0 -10.0899 17.2964 -0.0001 0 10.0899c0.0119,3.5287 -2.5456,6.5408 -6.0294,7.1016 -0.3887,0.0713 -0.7826,0.1069 -1.1778,0.1056l-2.8827 0c-0.4045,0.0007 -0.8083,-0.0362 -1.2061,-0.1095 -3.472,-0.5714 -6.0156,-3.5795 -6.0004,-7.0976zm7.2065 10.0892l2.8827 0 0 1.4417 -2.8827 0 0 -1.4417zm-5.7655 4.3245l0 2.8827 -1.441 0c-0.7964,0 -1.4417,-0.6453 -1.4417,-1.441l0 -1.4417 2.8827 0zm-40.359 10.0899l0 -8.6482 2.8827 0 0 8.6482 -2.8827 0zm5.7655 -2.8828l0 -2.8827 1.4417 0 0 2.8827 -1.4417 0zm13.5625 32.0592c-0.1603,0.6426 -0.7376,1.0933 -1.4001,1.0926l-8.4694 0c-0.7964,0.0007 -1.4424,-0.644 -1.4431,-1.4397 0,-0.1187 0.0145,-0.2369 0.0436,-0.3517l6.0393 -24.1539 11.4432 0 -6.2135 24.8527zm14.2217 -17.6455l-6.8403 0 1.8013 -7.2072 7.0917 0 -2.0527 7.2072zm34.1956 -11.5309c0,0.7957 -0.6452,1.441 -1.441,1.441l-56.2144 0 0 -11.531 24.5036 0.0001 0 1.4417c0,2.3878 1.9359,4.3237 4.3244,4.3237l17.2965 0c2.3885,0 4.3244,-1.9359 4.3244,-4.3237l0 -1.4417 5.7655 0c0.7957,0 1.441,0.6452 1.441,1.4417l0 8.6482zm2.8828 -2.8828l0 -2.8827 2.8827 0 0 2.8827 -2.8827 0zm0 0z"/>
   <path class="fil3" d="M513.9641 131.7341l-2.8827 0c-0.7958,0 -1.4411,0.6453 -1.4411,1.441 0,0.7964 0.6453,1.4417 1.4411,1.4417l2.8827 0c0.7964,0 1.4417,-0.6453 1.4417,-1.4417 0,-0.7957 -0.6453,-1.441 -1.4417,-1.441l0 0zm0 0z"/>
   <path class="fil3" d="M509.6403 130.2924c0.3821,0 0.749,-0.1518 1.0195,-0.4223l2.8827 -2.8827c0.5529,-0.5727 0.5371,-1.4853 -0.0356,-2.0382 -0.5589,-0.5397 -1.4444,-0.5397 -2.0025,0l-2.8828 2.8827c-0.5628,0.5629 -0.5628,1.476 0,2.0388 0.2699,0.2699 0.6368,0.4217 1.0188,0.4217l-0.0001 0zm0 0z"/>
   <path class="fil3" d="M510.6591 136.4801c-0.5727,-0.5529 -1.4846,-0.5371 -2.0382,0.0356 -0.5391,0.5589 -0.5391,1.4444 0,2.0026l2.8827 2.8827c0.5727,0.5529 1.4853,0.5377 2.0382,-0.035 0.5397,-0.5588 0.5397,-1.4443 0,-2.0032l-2.8827 -2.8827zm0 0z"/>
  </g>
  <g id="_759827152">
   <path class="fil0" d="M114.2181 114.464l10.9141 0 0 1.9844 -10.9141 0 0 -1.9844zm0 0z"/>
   <path class="fil7" d="M125.1322 101.9625l0 12.5015 -10.9141 0 0 -12.5015 10.9141 0zm0 0z"/>
   <path class="fil2" d="M122.1556 106.1395l-1.2402 1.2711 0.2926 1.7948 -1.5328 -0.8472 -1.5331 0.8472 0.2928 -1.7948 -1.2402 -1.2711 1.714 -0.2618 0.7664 -1.6332 0.7665 1.6332 1.714 0.2618zm0 0z"/>
   <path class="fil0" d="M124.5958 100.1924c-0.3438,-0.498 -0.8399,-0.9022 -1.448,-1.2065l0 -1.9843 -1.9844 0 0 -2.9766 -2.9765 0 0 2.9765 -1.9844 0.0001 0 1.9843c-1.216,0.6083 -1.9844,1.6168 -1.9844,2.9766l10.9141 0c0,-0.6796 -0.1921,-1.272 -0.5364,-1.7701l0 0zm0 0z"/>
   <path class="fil2" d="M118.1869 94.025l2.9765 0 0 2.9765 -2.9765 0.0001 0 -2.9766zm0 0z"/>
   <path class="fil3" d="M117.1947 112.9757c0.2738,0 0.4961,-0.2222 0.4961,-0.4961 0,-0.2738 -0.2223,-0.496 -0.4961,-0.496 -0.2738,0 -0.4961,0.2222 -0.4961,0.496 0,0.2739 0.2223,0.4961 0.4961,0.4961zm0 0z"/>
   <path class="fil3" d="M121.1634 93.5289l-2.9765 0c-0.274,0 -0.4961,0.2221 -0.4961,0.4961l0 2.4805 -1.4883 0c-0.274,0 -0.4961,0.222 -0.4961,0.4961l0 1.6882c-1.2825,0.7393 -1.9844,1.8912 -1.9844,3.2727l0 14.4859c0,0.274 0.2221,0.4961 0.4961,0.4961l10.9141 0c0.2738,0 0.4961,-0.2221 0.4961,-0.4961l0 -14.4859c0,-1.4296 -0.7451,-2.5594 -1.9844,-3.2727l0 -1.6883c0,-0.274 -0.2223,-0.4961 -0.4961,-0.4961l-1.4883 0.0001 0 -2.4805c0,-0.274 -0.2221,-0.4961 -0.4961,-0.4961zm-2.4804 0.9922l1.9843 0 0 1.9844 -1.9843 0 0 -1.9844zm5.9531 19.4468l-9.9219 0 0 -11.5093 9.9219 0 0 11.5093zm-9.9219 1.9844l0 -0.9922 9.9219 0 0 0.9922 -9.9219 0zm9.8793 -14.4859l-9.8365 0c0.181,-1.0224 0.9091,-1.6336 1.566,-1.9844l6.7043 0c0.8079,0.4304 1.4063,1.0796 1.5662,1.9844zm-1.9418 -2.9766l-5.9531 0 0 -0.9922 5.9531 0 0 0.9922zm0 0z"/>
   <path class="fil3" d="M117.9049 107.5778l-0.2523 1.5478c-0.0306,0.1874 0.0486,0.3759 0.2039,0.4854 0.1552,0.1093 0.3595,0.1206 0.5257,0.0285l1.293 -0.7147 1.2929 0.7147c0.1674,0.0926 0.3717,0.08 0.5257,-0.0285 0.1553,-0.1095 0.2345,-0.298 0.2039,-0.4854l-0.2525 -1.5478 1.0654 -1.0918c0.1299,-0.1331 0.1744,-0.3275 0.1153,-0.5038 -0.0589,-0.1764 -0.2116,-0.3048 -0.3955,-0.3329l-1.4522 -0.2221 -0.6541 -1.3933c-0.0815,-0.1742 -0.2567,-0.2855 -0.449,-0.2855 -0.1924,0 -0.3674,0.1113 -0.4492,0.2855l-0.654 1.3933 -1.4522 0.2221c-0.1839,0.0281 -0.3366,0.1566 -0.3956,0.3329 -0.0589,0.1763 -0.0145,0.3707 0.1153,0.5038l1.0655 1.0918zm1.0786 -1.2098c0.1636,-0.025 0.3039,-0.1298 0.3742,-0.2796l0.3174 -0.6761 0.3173 0.6761c0.0703,0.1498 0.2106,0.2546 0.3742,0.2796l0.7596 0.1161 -0.5658 0.58c-0.1101,0.1126 -0.1599,0.2709 -0.1347,0.4263l0.1283 0.7866 -0.6388 -0.3531c-0.0748,-0.0413 -0.1573,-0.062 -0.2401,-0.062 -0.0825,0 -0.1653,0.0207 -0.2399,0.062l-0.6389 0.3531 0.1283 -0.7866c0.0254,-0.1554 -0.0246,-0.3137 -0.1345,-0.4263l-0.566 -0.58 0.7594 -0.1161zm0 0z"/>
   <path class="fil3" d="M122.1556 111.9836l-2.9765 0c-0.274,0 -0.4961,0.222 -0.4961,0.496 0,0.2741 0.222,0.4961 0.4961,0.4961l2.9765 0c0.2738,0 0.4961,-0.222 0.4961,-0.4961 0,-0.274 -0.2223,-0.496 -0.4961,-0.496zm0 0z"/>
   <path class="fil3" d="M127.6126 95.0172c0,-0.274 -0.2222,-0.4961 -0.496,-0.4961l-1.9844 0c-0.274,0 -0.4961,0.2221 -0.4961,0.4961 0,0.274 0.222,0.4961 0.4961,0.4961l1.9844 0c0.2738,0 0.496,-0.2221 0.496,-0.4961zm0 0z"/>
   <path class="fil3" d="M131.0853 95.5133c0.2738,0 0.4961,-0.2221 0.4961,-0.4961 0,-0.274 -0.2223,-0.4961 -0.4961,-0.4961l-1.9844 0c-0.274,0 -0.4961,0.2221 -0.4961,0.4961 0,0.274 0.2221,0.4961 0.4961,0.4961l1.9844 0zm0 0z"/>
   <path class="fil3" d="M132.5668 91.9592c-0.0452,-0.2703 -0.3012,-0.4529 -0.5709,-0.4079l-5.9531 0.9922c-0.2704,0.0452 -0.4529,0.3007 -0.408,0.5709 0.0452,0.2707 0.3012,0.4529 0.5709,0.4079l5.9532 -0.9922c0.2703,-0.0451 0.4529,-0.3007 0.4079,-0.5709zm0 0z"/>
   <path class="fil3" d="M126.0428 97.4909l5.9531 0.9921c0.2701,0.0452 0.5257,-0.1373 0.5709,-0.4077 0.045,-0.2703 -0.1376,-0.5259 -0.4079,-0.5709l-5.9531 -0.9922c-0.2704,-0.0449 -0.5258,0.1376 -0.5709,0.4078 -0.045,0.2703 0.1376,0.5259 0.4079,0.5709zm0 0z"/>
  </g>
  <g id="_759830224">
   <path class="fil2" d="M-107.9413 128.9752l-3.2599 2.6293 -2.1545 4.316 17.1365 0 0 -6.9453c-1.1344,0 -11.2549,0 -11.7221,0zm0 0z"/>
   <path class="fil7" d="M-104.8318 116.0434c-0.7713,0.7715 -7.1223,7.1225 -7.8577,7.8577l-1.0914 6.86 2.1634 1.8902c0.3341,-0.3341 11.1978,-11.1977 11.6964,-11.6965l-4.9107 -4.9114zm0 0z"/>
   <path class="fil2" d="M-119.6348 112.5049l0 17.1365 6.9453 0c0,0 0,-16.7654 0,-17.1365l-6.9453 0zm0 0z"/>
   <path class="fil0" d="M-111.6973 132.4478c0,2.4662 -1.9991,4.4649 -4.4648,4.4649 -2.4662,0 -4.4649,-1.9987 -4.4649,-4.4649 0,-2.4591 1.9925,-4.4648 4.4649,-4.4648 2.4684,0 4.4648,2.0018 4.4648,4.4648zm0 0z"/>
   <path class="fil2" d="M-116.1621 129.9674c1.3677,0 2.4804,1.1123 2.4804,2.4804 0,1.3682 -1.1127,2.4805 -2.4804,2.4805 -1.3678,0 -2.4805,-1.1123 -2.4805,-2.4805 0,-1.3681 1.1127,-2.4804 2.4805,-2.4804zm0 0z"/>
   <path class="fil3" d="M-99.4934 132.4478c0.2738,0 0.4961,-0.2222 0.4961,-0.496 0,-0.2739 -0.2223,-0.4961 -0.4961,-0.4961 -0.2738,0 -0.4961,0.2222 -0.4961,0.4961 0,0.2738 0.2223,0.496 0.4961,0.496zm0 0z"/>
   <path class="fil3" d="M-116.1621 129.4713c-1.6414,0 -2.9766,1.3352 -2.9766,2.9766 0,1.6413 1.3352,2.9765 2.9766,2.9765 1.6413,0 2.9765,-1.3352 2.9765,-2.9765 0,-1.6414 -1.3352,-2.9766 -2.9765,-2.9766zm0 4.9609c-1.0942,0 -1.9844,-0.8902 -1.9844,-1.9844 0,-1.0941 0.8902,-1.9843 1.9844,-1.9843 1.0941,0 1.9843,0.8902 1.9843,1.9843 0,1.0942 -0.8902,1.9844 -1.9843,1.9844zm0 0z"/>
   <path class="fil3" d="M-96.2192 128.4791l-10.5245 0 7.1734 -7.1734c0.1937,-0.1938 0.1937,-0.5079 0,-0.7017l-4.9108 -4.9113c-0.093,-0.093 -0.2192,-0.1454 -0.3507,-0.1454 -0.1316,0 -0.2578,0.0524 -0.3508,0.1454l-7.0108 7.0108 0 -10.1986c0,-0.274 -0.2221,-0.4961 -0.4961,-0.4961l-6.9453 0c-0.274,0 -0.4961,0.2221 -0.4961,0.4961l0 16.9672c-0.6407,0.8538 -0.9922,1.9033 -0.9922,2.9758 0,2.7355 2.2254,4.9609 4.9609,4.9609 1.0725,0 2.122,-0.3515 2.9758,-0.9922l16.9672 0c0.274,0 0.4961,-0.2221 0.4961,-0.4961l0 -6.9453c0,-0.274 -0.2221,-0.4961 -0.4961,-0.4961l0 0zm-12.1206 -8.226l4.2093 4.2096 -3.5078 3.5077 -4.2098 -4.2092 3.5083 -3.5081zm-2.9339 11.3528c-0.1331,-0.7715 -0.4482,-1.5056 -0.9197,-2.1338l0 -4.653 3.8534 3.853 -2.9337 2.9338zm-7.865 -8.0877l0 -5.2586 5.9531 0 0 5.2586 -5.9531 0zm0 0.9922l5.9531 0 0 3.9675c-0.8496,-0.6387 -1.8873,-0.991 -2.9766,-0.991 -1.0892,0 -2.127,0.3523 -2.9765,0.991l0 -3.9675zm7.9104 8.4533l3.0036 -3.0037 0 5.4644 -3.9693 0c0.5364,-0.7147 0.8732,-1.565 0.9657,-2.4607l0 0zm3.9958 -3.4924l5.2586 0 0 5.9531 -5.2586 0 0 -5.9531zm2.4007 -12.7262l4.2092 4.2097 -2.8062 2.8064 -4.2093 -4.2099 2.8063 -2.8062zm-8.3538 -3.7441l0 4.2664 -5.9531 0 0 -4.2664 5.9531 0zm-6.9453 19.4468c0,-2.2049 1.7869,-3.9687 3.9688,-3.9687 2.2099,0 3.9687,1.7943 3.9687,3.9687 0,2.1639 -1.7489,3.9688 -3.9687,3.9688 -2.1885,0 -3.9688,-1.7803 -3.9688,-3.9688zm23.4156 2.9766l-2.282 0 0 -1.4883c0,-0.274 -0.2221,-0.4961 -0.4961,-0.4961 -0.274,0 -0.4961,0.2221 -0.4961,0.4961l0 1.4883 -0.9922 0 0 -5.9531 4.2664 0 0 5.9531zm0 0z"/>
  </g>
 </g>
</svg>
