<?xml version="1.0" encoding="UTF-8"?>
<!DOCTYPE svg PUBLIC "-//W3C//DTD SVG 1.1//EN" "http://www.w3.org/Graphics/SVG/1.1/DTD/svg11.dtd">
<!-- Creator: CorelDRAW 2017 -->
<svg xmlns="http://www.w3.org/2000/svg" xml:space="preserve" width="auto" height="auto" version="1.1" style="shape-rendering:geometricPrecision; text-rendering:geometricPrecision; image-rendering:optimizeQuality; fill-rule:evenodd; clip-rule:evenodd"
viewBox="0 0 auto auto"
 xmlns:xlink="http://www.w3.org/1999/xlink">
 <defs>
  <style type="text/css">
   <![CDATA[
    .fil18 {fill:#006B80;fill-rule:nonzero}
    .fil6 {fill:#14272B;fill-rule:nonzero}
    .fil17 {fill:#1C8FA6;fill-rule:nonzero}
    .fil16 {fill:#41BFD9;fill-rule:nonzero}
    .fil5 {fill:#476166;fill-rule:nonzero}
    .fil15 {fill:#79DEF2;fill-rule:nonzero}
    .fil4 {fill:#7B9599;fill-rule:nonzero}
    .fil10 {fill:#9C0C1C;fill-rule:nonzero}
    .fil3 {fill:#B3A78F;fill-rule:nonzero}
    .fil2 {fill:#B8C9CC;fill-rule:nonzero}
    .fil14 {fill:#E6AC00;fill-rule:nonzero}
    .fil0 {fill:#E6D7B8;fill-rule:nonzero}
    .fil9 {fill:#EA1C1C;fill-rule:nonzero}
    .fil8 {fill:#FF6759;fill-rule:nonzero}
    .fil7 {fill:#FFB5A6;fill-rule:nonzero}
    .fil13 {fill:#FFCC00;fill-rule:nonzero}
    .fil12 {fill:#FFE14D;fill-rule:nonzero}
    .fil11 {fill:#FFF399;fill-rule:nonzero}
    .fil1 {fill:#FFF7E6;fill-rule:nonzero}
    .fil19 {fill:white;fill-rule:nonzero}
   ]]>
  </style>
 </defs>
 <g id="Camada_x0020_1">
  <metadata id="CorelCorpID_0Corel-Layer"/>
  <path class="fil0" d="M14.8675 17.7536c-0.0805,-0.1471 -0.0258,-0.3323 0.122,-0.4121l7.3551 -4.0022c0.1478,-0.0805 0.3327,-0.0258 0.4131,0.1217l11.405 20.962c0.08,0.1478 0.0254,0.3327 -0.1221,0.4135l-7.3551 4.0015c-0.1478,0.0798 -0.3326,0.0258 -0.4127,-0.122l-11.4053 -20.9624z"/>
  <path class="fil1" d="M14.7137 18.0079c-0.0805,-0.1474 -0.0254,-0.3326 0.122,-0.4124l7.3551 -4.0015c0.1475,-0.0812 0.3323,-0.0265 0.4127,0.1213l11.405 20.9621c0.0804,0.1478 0.0257,0.3323 -0.1221,0.4127l-7.355 4.0016c-0.1475,0.0808 -0.3323,0.0257 -0.4124,-0.1217l-11.4053 -20.9621z"/>
  <path class="fil2" d="M16.9584 21.5216c-0.0522,0.0282 -0.1171,0.0092 -0.1454,-0.0431l-1.8884 -3.4702c-0.0285,-0.0519 -0.0091,-0.1171 0.0427,-0.1457l7.3766 -4.0132c0.0519,-0.0282 0.1168,-0.0092 0.145,0.043l1.8884 3.4703c0.0282,0.0529 0.0092,0.1171 -0.043,0.1457l-7.3759 4.0132z"/>
  <polygon class="fil3" points="23.8425,17.9652 23.9896,17.8852 24.2182,18.3053 24.0711,18.3857 "/>
  <polygon class="fil3" points="23.5479,18.1254 23.6954,18.045 23.924,18.4648 23.7769,18.5456 "/>
  <polygon class="fil3" points="23.2544,18.2856 23.4012,18.2048 23.6301,18.6253 23.4827,18.7057 "/>
  <polygon class="fil3" points="22.9598,18.4457 23.107,18.3649 23.3356,18.7858 23.1888,18.8659 "/>
  <polygon class="fil3" points="22.3718,18.7657 22.5189,18.6849 22.7475,19.1058 22.6004,19.1851 "/>
  <polygon class="fil3" points="22.0779,18.9255 22.2247,18.8454 22.4533,19.2659 22.3062,19.3457 "/>
  <polygon class="fil3" points="21.7837,19.0857 21.9304,19.0056 22.159,19.4261 22.0119,19.5058 "/>
  <polygon class="fil3" points="21.4891,19.2455 21.6366,19.1654 21.8652,19.5855 21.7181,19.6656 "/>
  <polygon class="fil3" points="21.1953,19.4053 21.3424,19.3252 21.571,19.7457 21.4239,19.8261 "/>
  <polygon class="fil3" points="20.901,19.5661 21.0481,19.4857 21.2767,19.9062 21.1296,19.9856 "/>
  <path class="fil4" d="M19.382 25.9761c-0.0522,0.0282 -0.1171,0.0095 -0.1454,-0.0427l-1.8884 -3.4706c-0.0282,-0.0522 -0.0092,-0.1171 0.0431,-0.1453l7.3762 -4.0132c0.0518,-0.0283 0.1168,-0.0096 0.1457,0.0426l1.8877 3.471c0.0286,0.0519 0.0092,0.1168 -0.043,0.145l-7.3759 4.0132z"/>
  <polygon class="fil3" points="26.2661,22.4194 26.4132,22.34 26.6418,22.7598 26.4947,22.8399 "/>
  <polygon class="fil3" points="25.9719,22.5796 26.1193,22.4998 26.3476,22.9204 26.2008,23.0001 "/>
  <polygon class="fil3" points="25.678,22.7401 25.8251,22.66 26.0534,23.0802 25.9062,23.1602 "/>
  <polygon class="fil3" points="25.3838,22.9002 25.5309,22.8202 25.7595,23.2403 25.6124,23.3204 "/>
  <polygon class="fil3" points="24.7957,23.2202 24.9428,23.1394 25.1711,23.5603 25.0236,23.6404 "/>
  <polygon class="fil3" points="24.5011,23.3804 24.6486,23.2999 24.8772,23.7201 24.7297,23.8002 "/>
  <polygon class="fil3" points="24.2073,23.5405 24.3544,23.4601 24.583,23.8803 24.4359,23.9603 "/>
  <polygon class="fil3" points="23.9131,23.6996 24.0602,23.6203 24.2888,24.0404 24.1413,24.1205 "/>
  <polygon class="fil3" points="23.6192,23.8598 23.7659,23.7804 23.9942,24.2006 23.8474,24.2807 "/>
  <polygon class="fil3" points="23.3246,24.02 23.4717,23.9406 23.7003,24.3607 23.5536,24.4405 "/>
  <path class="fil5" d="M21.8056 30.431c-0.0519,0.0286 -0.1172,0.0092 -0.1454,-0.0427l-1.8884 -3.471c-0.0282,-0.0518 -0.0088,-0.1167 0.043,-0.1453l7.3763 -4.0132c0.0515,-0.0279 0.1167,-0.0095 0.1453,0.0427l1.8884 3.4709c0.0283,0.0526 0.0092,0.1168 -0.043,0.1447l-7.3762 4.0139z"/>
  <polygon class="fil3" points="28.6897,26.8739 28.8371,26.7949 29.0654,27.2144 28.9186,27.2948 "/>
  <polygon class="fil3" points="28.3954,27.0344 28.5429,26.9544 28.7712,27.3749 28.624,27.4553 "/>
  <polygon class="fil3" points="28.1016,27.195 28.2487,27.1149 28.4769,27.5347 28.3298,27.6151 "/>
  <polygon class="fil3" points="27.8074,27.3551 27.9545,27.2747 28.1831,27.6945 28.0356,27.7753 "/>
  <polygon class="fil3" points="27.2193,27.6747 27.366,27.5947 27.5946,28.0148 27.4475,28.0949 "/>
  <polygon class="fil3" points="26.9251,27.8349 27.0722,27.7548 27.3008,28.175 27.1537,28.2551 "/>
  <polygon class="fil3" points="26.6309,27.9944 26.7776,27.915 27.0069,28.3348 26.8598,28.4152 "/>
  <polygon class="fil3" points="26.3363,28.1549 26.4837,28.0748 26.7123,28.4949 26.5652,28.5754 "/>
  <polygon class="fil3" points="26.0424,28.3143 26.1899,28.2349 26.4181,28.6548 26.2714,28.7352 "/>
  <polygon class="fil3" points="25.7486,28.4748 25.8957,28.3948 26.1239,28.8149 25.9772,28.8953 "/>
  <path class="fil6" d="M24.2291 34.8852c-0.0518,0.0282 -0.1167,0.0095 -0.1453,-0.0424l-1.8881 -3.4706c-0.0282,-0.0519 -0.0091,-0.1175 0.0427,-0.146l7.3762 -4.0129c0.0523,-0.0282 0.1172,-0.0088 0.1457,0.043l1.8881 3.4707c0.0282,0.0522 0.0092,0.1171 -0.043,0.1453l-7.3763 4.0129z"/>
  <polygon class="fil3" points="31.1136,31.3292 31.2607,31.2494 31.4893,31.6696 31.3418,31.75 "/>
  <polygon class="fil3" points="30.8194,31.4886 30.9665,31.4096 31.1951,31.8294 31.0483,31.9095 "/>
  <polygon class="fil3" points="30.5252,31.6488 30.6719,31.5694 30.9009,31.9896 30.7541,32.0696 "/>
  <polygon class="fil3" points="30.2313,31.8093 30.3784,31.7296 30.607,32.1497 30.4599,32.2298 "/>
  <polygon class="fil3" points="29.6429,32.1293 29.79,32.0495 30.0186,32.4693 29.8715,32.5498 "/>
  <polygon class="fil3" points="29.349,32.2894 29.4958,32.209 29.7244,32.6295 29.5773,32.7099 "/>
  <polygon class="fil3" points="29.0544,32.4499 29.2015,32.3692 29.4305,32.7897 29.283,32.8701 "/>
  <polygon class="fil3" points="28.7602,32.6094 28.9073,32.5297 29.1359,32.9498 28.9895,33.0299 "/>
  <polygon class="fil3" points="28.4664,32.7688 28.6135,32.6898 28.8421,33.1096 28.695,33.1897 "/>
  <polygon class="fil3" points="28.1721,32.9294 28.3192,32.8496 28.5478,33.2698 28.4011,33.3499 "/>
  <path class="fil0" d="M25.9443 14.314c0.0043,-0.1676 0.1443,-0.3009 0.3119,-0.2963l8.3707 0.212c0.1683,0.0042 0.3009,0.1439 0.2967,0.3115l-0.604 23.8562c-0.0042,0.1686 -0.1439,0.3013 -0.3122,0.2971l-8.3703 -0.2117c-0.1683,-0.0049 -0.3009,-0.1443 -0.2967,-0.3122l0.6039 -23.8566z"/>
  <path class="fil1" d="M25.611 14.4156c0.0049,-0.1683 0.1443,-0.3016 0.3122,-0.2967l8.3707 0.212c0.1679,0.0039 0.3009,0.144 0.2967,0.3115l-0.604 23.8563c-0.0039,0.1682 -0.1439,0.3016 -0.3122,0.297l-8.3703 -0.2124c-0.1683,-0.0038 -0.301,-0.1435 -0.2967,-0.3118l0.6036 -23.8559z"/>
  <path class="fil7" d="M25.7987 18.5801c-0.0593,-0.001 -0.1062,-0.0504 -0.1048,-0.1093l0.1002 -3.9494c0.001,-0.0592 0.0508,-0.1062 0.1097,-0.1048l8.3947 0.2121c0.0589,0.0017 0.1058,0.0511 0.1044,0.1104l-0.1002 3.949c-0.0014,0.0599 -0.0504,0.1065 -0.1101,0.1055l-8.3939 -0.2135z"/>
  <polygon class="fil3" points="33.5386,18.9428 33.7058,18.947 33.6938,19.4254 33.5266,19.4211 "/>
  <polygon class="fil3" points="33.2035,18.934 33.371,18.9389 33.359,19.4169 33.1915,19.4127 "/>
  <polygon class="fil3" points="32.869,18.9258 33.0362,18.9301 33.0242,19.4084 32.8567,19.4042 "/>
  <polygon class="fil3" points="32.5342,18.9174 32.7018,18.922 32.6895,19.4 32.5219,19.3957 "/>
  <polygon class="fil3" points="31.865,18.9004 32.0322,18.9047 32.0199,19.383 31.8527,19.3788 "/>
  <polygon class="fil3" points="31.5302,18.892 31.6974,18.8962 31.6855,19.3746 31.5179,19.3707 "/>
  <polygon class="fil3" points="31.1954,18.8832 31.3627,18.8877 31.3507,19.3661 31.1835,19.3619 "/>
  <polygon class="fil3" points="30.8607,18.875 31.0279,18.8789 31.0159,19.3576 30.8483,19.3531 "/>
  <polygon class="fil3" points="30.5259,18.8659 30.6931,18.8712 30.6811,19.3492 30.5135,19.3449 "/>
  <polygon class="fil3" points="30.1911,18.8578 30.3583,18.8623 30.3463,19.3411 30.1791,19.3365 "/>
  <path class="fil8" d="M25.6699 23.6502c-0.0589,-0.0014 -0.1062,-0.0508 -0.1041,-0.1097l0.0999 -3.9497c0.0014,-0.0592 0.0504,-0.1058 0.1097,-0.1044l8.3947 0.212c0.0592,0.0014 0.1062,0.0508 0.1044,0.1105l-0.1002 3.9493c-0.0014,0.0596 -0.0504,0.1062 -0.1097,0.1044l-8.3947 -0.2124z"/>
  <polygon class="fil3" points="33.4102,24.0122 33.5778,24.0164 33.5654,24.4948 33.3982,24.4909 "/>
  <polygon class="fil3" points="33.0754,24.0041 33.2426,24.008 33.2306,24.487 33.0634,24.4825 "/>
  <polygon class="fil3" points="32.7406,23.9953 32.9078,23.9995 32.8958,24.4779 32.7286,24.4743 "/>
  <polygon class="fil3" points="32.4058,23.9872 32.5734,23.991 32.5607,24.4701 32.3938,24.4652 "/>
  <polygon class="fil3" points="31.7366,23.9702 31.9038,23.9745 31.8918,24.4528 31.7243,24.4482 "/>
  <polygon class="fil3" points="31.4015,23.9614 31.569,23.9656 31.5567,24.444 31.3895,24.4394 "/>
  <polygon class="fil3" points="31.067,23.9529 31.2343,23.9575 31.2223,24.4352 31.0547,24.4317 "/>
  <polygon class="fil3" points="30.7322,23.9448 30.8995,23.9491 30.8875,24.4267 30.7199,24.4225 "/>
  <polygon class="fil3" points="30.3975,23.936 30.5647,23.9402 30.5527,24.4182 30.3855,24.414 "/>
  <polygon class="fil3" points="30.0627,23.9279 30.2302,23.9318 30.2179,24.4101 30.0507,24.4059 "/>
  <path class="fil9" d="M25.5418 28.72c-0.0592,-0.0014 -0.1062,-0.0511 -0.1044,-0.1097l0.0998 -3.9497c0.0015,-0.06 0.0505,-0.1062 0.1098,-0.1048l8.3947 0.2128c0.0589,0.001 0.1061,0.0504 0.1044,0.1093l-0.0999 3.9501c-0.0014,0.0589 -0.0508,0.1058 -0.1097,0.1047l-8.3947 -0.2127z"/>
  <polygon class="fil3" points="33.2818,29.0823 33.4493,29.0862 33.437,29.5646 33.2694,29.5603 "/>
  <polygon class="fil3" points="32.947,29.0739 33.1146,29.0777 33.1022,29.5565 32.935,29.5519 "/>
  <polygon class="fil3" points="32.6122,29.0654 32.7798,29.0693 32.7674,29.5473 32.5999,29.5434 "/>
  <polygon class="fil3" points="32.2774,29.0569 32.445,29.0615 32.4326,29.5392 32.2654,29.5349 "/>
  <polygon class="fil3" points="31.6078,29.04 31.7758,29.0442 31.7634,29.5222 31.5958,29.5176 "/>
  <polygon class="fil3" points="31.2734,29.0315 31.4406,29.0358 31.4286,29.5138 31.2611,29.5095 "/>
  <polygon class="fil3" points="30.9386,29.0231 31.1058,29.0269 31.0935,29.5053 30.9263,29.5011 "/>
  <polygon class="fil3" points="30.6038,29.0142 30.7714,29.0185 30.7591,29.4968 30.5915,29.4926 "/>
  <polygon class="fil3" points="30.2691,29.0058 30.4366,29.01 30.4246,29.488 30.2571,29.4841 "/>
  <polygon class="fil3" points="29.9346,28.9977 30.1022,29.0019 30.0898,29.4799 29.9223,29.4753 "/>
  <path class="fil10" d="M25.4134 33.7894c-0.0589,-0.0014 -0.1058,-0.0508 -0.1048,-0.1097l0.1002 -3.9497c0.0014,-0.0592 0.0508,-0.1062 0.1101,-0.1048l8.3947 0.2128c0.0589,0.0017 0.1058,0.0504 0.1044,0.11l-0.1002 3.9497c-0.0017,0.059 -0.0508,0.1062 -0.1097,0.1041l-8.3947 -0.2124z"/>
  <polygon class="fil3" points="33.1534,34.1521 33.3206,34.1556 33.3089,34.6343 33.1414,34.6298 "/>
  <polygon class="fil3" points="32.8186,34.1433 32.9861,34.1475 32.9742,34.6259 32.8066,34.6216 "/>
  <polygon class="fil3" points="32.4838,34.1348 32.6514,34.1387 32.639,34.6174 32.4718,34.6135 "/>
  <polygon class="fil3" points="32.149,34.1263 32.3169,34.1306 32.3046,34.6093 32.137,34.6047 "/>
  <polygon class="fil3" points="31.4798,34.1091 31.6474,34.1136 31.635,34.5917 31.4674,34.5881 "/>
  <polygon class="fil3" points="31.1446,34.1009 31.3122,34.1048 31.3002,34.5839 31.1327,34.5793 "/>
  <polygon class="fil3" points="30.8102,34.0921 30.9778,34.0964 30.9658,34.5747 30.7982,34.5712 "/>
  <polygon class="fil3" points="30.4751,34.0837 30.6426,34.0882 30.6306,34.5663 30.4634,34.5624 "/>
  <polygon class="fil3" points="30.141,34.0755 30.3082,34.0794 30.2962,34.5581 30.1286,34.5539 "/>
  <polygon class="fil3" points="29.8059,34.0667 29.9734,34.0713 29.9611,34.5497 29.7939,34.5454 "/>
  <path class="fil0" d="M37.307 16.7298c0.0875,-0.1432 0.2748,-0.1884 0.418,-0.1005l7.1434 4.3684c0.1436,0.0879 0.1887,0.2752 0.1009,0.4191l-12.4513 20.3578c-0.0875,0.1432 -0.2752,0.1887 -0.4184,0.1012l-7.143 -4.3695c-0.1436,-0.0875 -0.1888,-0.2745 -0.1013,-0.418l12.4517 -20.3585z"/>
  <path class="fil1" d="M36.8452 16.7531c0.0878,-0.1436 0.2751,-0.1891 0.4184,-0.1009l7.1434 4.3691c0.1432,0.0872 0.1887,0.2749 0.1009,0.4181l-12.451 20.3581c-0.0878,0.1436 -0.2751,0.1891 -0.4187,0.1005l-7.1434 -4.3688c-0.1429,-0.0875 -0.1884,-0.2744 -0.1006,-0.418l12.451 -20.3581z"/>
  <path class="fil11" d="M34.9247 20.4537c-0.0505,-0.0307 -0.0664,-0.097 -0.0353,-0.1478l2.0613 -3.3701c0.031,-0.0508 0.097,-0.0666 0.1471,-0.0352l7.1638 4.3811c0.0508,0.0314 0.0667,0.0963 0.036,0.1468l-2.062 3.3711c-0.0307,0.0504 -0.0966,0.066 -0.1471,0.0353l-7.1638 -4.3812z"/>
  <polygon class="fil3" points="41.4468,24.6373 41.5897,24.7248 41.3399,25.1326 41.197,25.0455 "/>
  <polygon class="fil3" points="41.1611,24.462 41.3039,24.5495 41.0545,24.9583 40.9117,24.8709 "/>
  <polygon class="fil3" points="40.8757,24.2881 41.0185,24.3752 40.7688,24.7834 40.6259,24.6962 "/>
  <polygon class="fil3" points="40.5899,24.1131 40.7328,24.1999 40.483,24.6084 40.3402,24.5213 "/>
  <polygon class="fil3" points="40.0188,23.7638 40.1613,23.851 39.9119,24.2591 39.769,24.172 "/>
  <polygon class="fil3" points="39.733,23.5892 39.8759,23.6764 39.6261,24.0845 39.4833,23.9974 "/>
  <polygon class="fil3" points="39.4473,23.4139 39.5898,23.5017 39.3404,23.9099 39.1975,23.8224 "/>
  <polygon class="fil3" points="39.1615,23.24 39.3044,23.3271 39.0546,23.7353 38.9121,23.6481 "/>
  <polygon class="fil3" points="38.8761,23.0646 39.019,23.1525 38.7692,23.5606 38.6264,23.4728 "/>
  <polygon class="fil3" points="38.59,22.89 38.7329,22.9779 38.4831,23.386 38.3406,23.2989 "/>
  <path class="fil12" d="M32.2788 24.7802c-0.0504,-0.031 -0.0663,-0.0974 -0.0356,-0.1475l2.0613 -3.3708c0.0314,-0.0501 0.097,-0.0663 0.1474,-0.0356l7.1639 4.3815c0.0504,0.0311 0.0667,0.097 0.0356,0.1475l-2.0616 3.3701c-0.0307,0.0508 -0.097,0.0673 -0.1475,0.0356l-7.1635 -4.3808z"/>
  <polygon class="fil3" points="38.801,28.9631 38.9435,29.0506 38.6941,29.4591 38.5512,29.3712 "/>
  <polygon class="fil3" points="38.5152,28.7888 38.6581,28.8763 38.4083,29.2845 38.2651,29.197 "/>
  <polygon class="fil3" points="38.2291,28.6142 38.3724,28.7013 38.1226,29.1095 37.9797,29.022 "/>
  <polygon class="fil3" points="37.9441,28.4392 38.087,28.5267 37.8372,28.9352 37.6943,28.8477 "/>
  <polygon class="fil3" points="37.3726,28.09 37.5155,28.1771 37.2657,28.5856 37.1228,28.4985 "/>
  <polygon class="fil3" points="37.0868,27.9153 37.2297,28.0032 36.9799,28.4113 36.8371,28.3231 "/>
  <polygon class="fil3" points="36.8011,27.74 36.944,27.8278 36.6942,28.236 36.5513,28.1492 "/>
  <polygon class="fil3" points="36.5153,27.5657 36.6586,27.6532 36.4088,28.0621 36.2659,27.9739 "/>
  <polygon class="fil3" points="36.2299,27.3915 36.3725,27.4786 36.123,27.8864 35.9802,27.7993 "/>
  <polygon class="fil3" points="35.9442,27.2165 36.0871,27.304 35.8373,27.7118 35.6948,27.6246 "/>
  <path class="fil13" d="M29.6326 29.1063c-0.0501,-0.0314 -0.0659,-0.097 -0.0352,-0.1475l2.0612 -3.3704c0.0311,-0.0504 0.0971,-0.0667 0.1475,-0.0356l7.1639 4.3815c0.0504,0.0307 0.0663,0.097 0.0352,0.1474l-2.0616 3.3701c-0.0307,0.0505 -0.0967,0.0667 -0.1471,0.0357l-7.1639 -4.3812z"/>
  <polygon class="fil3" points="36.1551,33.2899 36.2973,33.3774 36.0483,33.7852 35.9054,33.6984 "/>
  <polygon class="fil3" points="35.869,33.1156 36.0123,33.2024 35.7625,33.6106 35.6193,33.5231 "/>
  <polygon class="fil3" points="35.5836,32.9399 35.7265,33.0281 35.4768,33.4356 35.3339,33.3488 "/>
  <polygon class="fil3" points="35.2975,32.766 35.4408,32.8532 35.191,33.2613 35.0481,33.1745 "/>
  <polygon class="fil3" points="34.7264,32.4161 34.8696,32.5036 34.6195,32.9117 34.4766,32.8249 "/>
  <polygon class="fil3" points="34.4406,32.2411 34.5835,32.3289 34.3341,32.7367 34.1912,32.6493 "/>
  <polygon class="fil3" points="34.1553,32.0668 34.2978,32.1543 34.0484,32.5621 33.9055,32.4753 "/>
  <polygon class="fil3" points="33.8695,31.8918 34.0124,31.9797 33.7626,32.3878 33.6201,32.3 "/>
  <polygon class="fil3" points="33.5838,31.7176 33.7266,31.8051 33.4769,32.2129 33.3343,32.1257 "/>
  <polygon class="fil3" points="33.2984,31.5426 33.4412,31.6301 33.1915,32.0382 33.0486,31.9508 "/>
  <path class="fil14" d="M26.9868 33.4324c-0.0504,-0.0303 -0.0667,-0.0966 -0.0356,-0.1474l2.0616 -3.3705c0.0311,-0.0508 0.097,-0.0663 0.1475,-0.0353l7.1638 4.3808c0.0505,0.0314 0.0664,0.0971 0.035,0.1479l-2.0613 3.3704c-0.0311,0.0511 -0.097,0.0663 -0.1471,0.0356l-7.1639 -4.3815z"/>
  <polygon class="fil3" points="33.5086,37.6164 33.6515,37.7032 33.4021,38.1113 33.2592,38.0245 "/>
  <polygon class="fil3" points="33.2229,37.4414 33.3661,37.5289 33.116,37.9374 32.9734,37.8496 "/>
  <polygon class="fil3" points="32.9375,37.2664 33.0803,37.3543 32.8306,37.7621 32.6877,37.6749 "/>
  <polygon class="fil3" points="32.6517,37.0921 32.7949,37.1789 32.5452,37.5874 32.4019,37.5 "/>
  <polygon class="fil3" points="32.0806,36.7429 32.2231,36.8297 31.974,37.2382 31.8308,37.1507 "/>
  <polygon class="fil3" points="31.7948,36.5679 31.9377,36.6554 31.6879,37.0632 31.5454,36.9761 "/>
  <polygon class="fil3" points="31.5091,36.3933 31.6519,36.4808 31.4022,36.8889 31.2593,36.8015 "/>
  <polygon class="fil3" points="31.2233,36.2187 31.3665,36.3058 31.1168,36.7136 30.9739,36.6268 "/>
  <polygon class="fil3" points="30.9379,36.0437 31.0804,36.1315 30.831,36.5393 30.6882,36.4522 "/>
  <polygon class="fil3" points="30.6522,35.8687 30.7954,35.9562 30.5456,36.3644 30.4024,36.2772 "/>
  <path class="fil0" d="M49.2926 35.0125c0.1679,0.0039 0.3009,0.1436 0.2967,0.3115l-0.2117 8.3704c-0.0046,0.1686 -0.1443,0.3016 -0.3122,0.297l-23.8562 -0.6036c-0.1683,-0.0046 -0.301,-0.1443 -0.2967,-0.3125l0.212 -8.3701c0.0042,-0.1682 0.1436,-0.3012 0.3118,-0.2973l23.8563 0.6046z"/>
  <path class="fil1" d="M48.9984 35.2923c0.1679,0.0035 0.3009,0.1435 0.2967,0.3115l-0.2121 8.3703c-0.0045,0.169 -0.1442,0.3013 -0.3118,0.2971l-23.8563 -0.6036c-0.1679,-0.0046 -0.3012,-0.1443 -0.2966,-0.3129l0.212 -8.3701c0.0042,-0.1682 0.1439,-0.3009 0.3118,-0.2966l23.8563 0.6043z"/>
  <path class="fil15" d="M44.8331 35.4792c0.0018,-0.0596 0.0508,-0.1061 0.1097,-0.1047l3.9501 0.1002c0.0593,0.0014 0.1055,0.0508 0.1044,0.11l-0.2127 8.3951c-0.0014,0.0585 -0.0508,0.1055 -0.1101,0.1037l-3.9493 -0.1002c-0.0596,-0.0011 -0.1059,-0.0501 -0.1044,-0.1094l0.2123 -8.3947z"/>
  <polygon class="fil3" points="44.4712,43.2188 44.4669,43.3864 43.9882,43.3744 43.9928,43.2068 "/>
  <polygon class="fil3" points="44.4793,42.8844 44.4754,43.0516 43.997,43.0396 44.0013,42.8721 "/>
  <polygon class="fil3" points="44.4881,42.5496 44.4839,42.7172 44.0055,42.7048 44.0094,42.5376 "/>
  <polygon class="fil3" points="44.4966,42.2152 44.4923,42.3817 44.014,42.37 44.0182,42.2028 "/>
  <polygon class="fil3" points="44.5135,41.5449 44.5089,41.7132 44.0309,41.7005 44.0351,41.5329 "/>
  <polygon class="fil3" points="44.522,41.2108 44.5177,41.3784 44.0397,41.366 44.0436,41.1981 "/>
  <polygon class="fil3" points="44.5304,40.876 44.5262,41.0433 44.0475,41.0313 44.0521,40.8637 "/>
  <polygon class="fil3" points="44.5389,40.5409 44.5347,40.7081 44.0563,40.6965 44.0605,40.5293 "/>
  <polygon class="fil3" points="44.5474,40.2061 44.5431,40.374 44.0648,40.3617 44.069,40.1941 "/>
  <polygon class="fil3" points="44.5558,39.8713 44.5516,40.0396 44.0732,40.0269 44.0782,39.8597 "/>
  <path class="fil16" d="M39.7637 35.3508c0.0011,-0.0589 0.0505,-0.1058 0.1097,-0.1047l3.9494 0.1005c0.0596,0.0014 0.1062,0.0504 0.1047,0.1094l-0.2127 8.3947c-0.001,0.0592 -0.0504,0.1061 -0.1097,0.1044l-3.9497 -0.1002c-0.0593,-0.0014 -0.1058,-0.0505 -0.1044,-0.1097l0.2127 -8.3944z"/>
  <polygon class="fil3" points="39.4014,43.0904 39.3972,43.2583 38.9188,43.2463 38.9227,43.0788 "/>
  <polygon class="fil3" points="39.4099,42.7556 39.4056,42.9232 38.9273,42.9109 38.9312,42.7443 "/>
  <polygon class="fil3" points="39.4183,42.4216 39.4141,42.5888 38.9361,42.5768 38.94,42.4085 "/>
  <polygon class="fil3" points="39.4268,42.0861 39.4222,42.254 38.9439,42.242 38.9484,42.0744 "/>
  <polygon class="fil3" points="39.4437,41.4172 39.4395,41.5844 38.9611,41.5721 38.9654,41.4048 "/>
  <polygon class="fil3" points="39.4522,41.0817 39.448,41.2496 38.9693,41.2376 38.9742,41.0704 "/>
  <polygon class="fil3" points="39.4607,40.7476 39.4564,40.9152 38.9781,40.9028 38.9823,40.7353 "/>
  <polygon class="fil3" points="39.4688,40.4125 39.4653,40.5804 38.9865,40.5681 38.9908,40.4005 "/>
  <polygon class="fil3" points="39.4776,40.0781 39.4734,40.2453 38.9954,40.2333 38.9989,40.0657 "/>
  <polygon class="fil3" points="39.4864,39.7433 39.4822,39.9108 39.0038,39.8985 39.0077,39.7316 "/>
  <path class="fil17" d="M34.6939 35.2221c0.0015,-0.0589 0.0508,-0.1055 0.1098,-0.1041l3.95 0.1002c0.0589,0.001 0.1055,0.0501 0.1044,0.1097l-0.2123 8.394c-0.0018,0.0596 -0.0508,0.1065 -0.1105,0.1048l-3.9497 -0.1002c-0.0592,-0.0014 -0.1058,-0.0501 -0.1044,-0.1097l0.2127 -8.3947z"/>
  <polygon class="fil3" points="34.3316,42.9624 34.3274,43.1299 33.849,43.1176 33.8533,42.95 "/>
  <polygon class="fil3" points="34.3401,42.6276 34.3362,42.7948 33.8575,42.7832 33.8617,42.6156 "/>
  <polygon class="fil3" points="34.3486,42.2928 34.3447,42.4604 33.866,42.448 33.8702,42.2808 "/>
  <polygon class="fil3" points="34.3567,41.958 34.3528,42.1252 33.8744,42.1136 33.879,41.9464 "/>
  <polygon class="fil3" points="34.3736,41.2884 34.3701,41.456 33.8917,41.4437 33.8956,41.2768 "/>
  <polygon class="fil3" points="34.3824,40.954 34.3782,41.1209 33.8998,41.1096 33.9041,40.9413 "/>
  <polygon class="fil3" points="34.3909,40.6189 34.387,40.7864 33.9083,40.7744 33.9125,40.6069 "/>
  <polygon class="fil3" points="34.3994,40.2844 34.3955,40.452 33.9171,40.4396 33.921,40.2728 "/>
  <polygon class="fil3" points="34.4078,39.9496 34.4036,40.1169 33.9252,40.1045 33.9298,39.9376 "/>
  <polygon class="fil3" points="34.4167,39.6149 34.4121,39.7824 33.9337,39.7704 33.9379,39.6029 "/>
  <path class="fil18" d="M29.6242 35.0933c0.0014,-0.0589 0.0508,-0.1055 0.1097,-0.1041l3.95 0.0999c0.059,0.0021 0.1059,0.0515 0.1045,0.11l-0.2128 8.3951c-0.0014,0.0589 -0.0504,0.1051 -0.11,0.1048l-3.9497 -0.1006c-0.0593,-0.001 -0.1062,-0.0508 -0.1041,-0.1097l0.2124 -8.3954z"/>
  <polygon class="fil3" points="29.2619,42.8343 29.258,43.0012 28.7796,42.9892 28.7835,42.822 "/>
  <polygon class="fil3" points="29.2703,42.4992 29.2661,42.6664 28.7881,42.6547 28.7923,42.4872 "/>
  <polygon class="fil3" points="29.2788,42.1644 29.2746,42.3319 28.7966,42.32 28.8008,42.1524 "/>
  <polygon class="fil3" points="29.2873,41.8296 29.283,41.9972 28.8047,41.9848 28.8093,41.8172 "/>
  <polygon class="fil3" points="29.3042,41.1604 29.3,41.3272 28.822,41.3159 28.8262,41.1484 "/>
  <polygon class="fil3" points="29.3127,40.8256 29.3084,40.9932 28.8304,40.9812 28.8347,40.8136 "/>
  <polygon class="fil3" points="29.3215,40.4908 29.3169,40.6587 28.8389,40.646 28.8431,40.4788 "/>
  <polygon class="fil3" points="29.3296,40.156 29.3254,40.3236 28.8474,40.3116 28.8516,40.1437 "/>
  <polygon class="fil3" points="29.3384,39.8212 29.3338,39.9888 28.8562,39.9768 28.8601,39.8092 "/>
  <polygon class="fil3" points="29.3465,39.4864 29.3423,39.6544 28.8643,39.642 28.8685,39.4741 "/>
  <path class="fil5" d="M26.4065 36.0052c-0.3662,0.199 -0.502,0.6576 -0.3027,1.0241 0.1997,0.3666 0.6583,0.502 1.0245,0.3027 0.3669,-0.1993 0.5016,-0.6579 0.3027,-1.0244 -0.1997,-0.3666 -0.6576,-0.502 -1.0245,-0.3024z"/>
  <path class="fil4" d="M26.4894 36.3689c-0.2519,0.1376 -0.3471,0.4484 -0.2127,0.6954 0.134,0.2466 0.4473,0.3355 0.6988,0.1989 0.2519,-0.1375 0.3468,-0.448 0.2127,-0.6953 -0.1344,-0.2462 -0.4473,-0.3351 -0.6988,-0.199z"/>
  <path class="fil19" d="M26.6742 36.8971c-0.1957,-0.048 -0.3735,-0.0099 -0.3972,0.0864 -0.0236,0.0956 0.1157,0.2127 0.3112,0.2614 0.1958,0.048 0.3736,0.0095 0.3975,-0.0861 0.0233,-0.0963 -0.116,-0.2131 -0.3115,-0.2617z"/>
 </g>
</svg>
